<?xml version="1.0" standalone="no"?>
<!DOCTYPE svg PUBLIC "-//W3C//DTD SVG 20010904//EN"
 "http://www.w3.org/TR/2001/REC-SVG-20010904/DTD/svg10.dtd">
<svg version="1.0" xmlns="http://www.w3.org/2000/svg"
 width="1080.000000pt" height="1527.000000pt" viewBox="0 0 1080.000000 1527.000000"
 preserveAspectRatio="xMidYMid meet">
<metadata>
Created by potrace 1.16, written by Peter Selinger 2001-2019
</metadata>
<g transform="translate(0.000000,1527.000000) scale(0.100000,-0.100000)"
fill="#000000" stroke="none">
<path d="M8138 14547 c-39 -23 -185 -162 -243 -232 -188 -226 -316 -392 -476
-620 -142 -201 -149 -214 -216 -385 -14 -36 -39 -99 -55 -140 -16 -41 -40
-104 -53 -140 -13 -36 -42 -114 -65 -175 -129 -343 -130 -348 -130 -469 0 -73
7 -143 21 -206 11 -52 31 -147 44 -210 14 -63 34 -153 45 -200 22 -97 24 -113
8 -85 -6 11 -25 43 -43 70 -17 28 -45 71 -61 97 -16 26 -33 46 -38 44 -6 -1
-20 -33 -32 -72 -34 -108 -133 -385 -153 -429 -11 -22 -49 -107 -86 -190 -37
-82 -71 -153 -74 -157 -3 -4 -44 -1 -90 7 -47 9 -94 13 -105 9 -12 -3 -61 -26
-111 -50 -62 -31 -125 -52 -205 -69 -63 -14 -140 -32 -170 -40 -30 -8 -147
-37 -260 -65 -346 -85 -363 -91 -439 -159 -36 -33 -170 -165 -297 -293 -258
-260 -223 -208 -359 -533 -37 -88 -73 -173 -80 -190 -7 -16 -45 -106 -84 -200
-39 -93 -82 -195 -96 -225 -39 -86 -265 -621 -265 -625 0 -3 -11 -28 -24 -57
-13 -29 -40 -93 -61 -143 -21 -49 -50 -119 -66 -155 -15 -36 -49 -114 -75
-175 -26 -60 -62 -146 -81 -190 -19 -44 -45 -105 -58 -135 -12 -30 -192 -451
-399 -935 -332 -775 -443 -1029 -531 -1220 -12 -27 -34 -75 -48 -105 -46 -101
-85 -184 -285 -605 -75 -159 -711 -1430 -808 -1615 -41 -80 -112 -215 -156
-300 -82 -157 -138 -263 -228 -435 -27 -52 -73 -139 -101 -192 -80 -152 -134
-254 -233 -438 -51 -93 -107 -199 -126 -235 -18 -36 -147 -273 -286 -527 -138
-254 -249 -465 -246 -468 3 -3 1228 -5 2723 -5 l2717 0 6 133 c4 72 10 299 15
502 5 204 12 378 16 388 5 12 13 16 29 11 11 -4 22 -8 24 -9 2 -2 -4 -101 -12
-221 -8 -121 -20 -316 -26 -434 -5 -118 -12 -250 -16 -293 l-5 -77 539 0 c296
0 541 2 544 5 3 3 -1 38 -8 78 -18 102 -20 97 35 97 l48 0 24 -90 23 -90 198
0 c175 0 202 2 226 18 15 10 56 38 92 62 83 56 155 124 187 178 29 48 29 55
63 557 11 171 27 402 35 515 8 113 15 218 15 234 l0 29 -51 -7 c-68 -9 -214
-58 -281 -94 -133 -72 -228 -145 -334 -254 -100 -103 -165 -187 -247 -320 -74
-121 -87 -150 -81 -174 2 -11 20 -84 39 -164 19 -79 35 -149 35 -155 0 -13
-62 -37 -71 -27 -4 4 -12 34 -18 67 -6 33 -21 113 -35 178 -27 133 -26 145 25
235 96 169 338 412 612 612 48 36 87 69 87 75 0 11 -30 48 -279 348 -135 161
-125 156 -164 85 l-19 -33 -19 24 c-11 13 -18 27 -17 31 4 11 240 210 248 210
4 0 13 -6 19 -13 13 -16 -5 -35 -82 -86 -27 -18 -51 -39 -53 -46 -6 -14 295
-381 397 -486 15 -15 28 -12 175 48 88 35 182 73 209 83 28 10 79 31 113 45
35 15 65 25 67 23 4 -4 -190 -88 -203 -88 -5 0 -8 -57 -8 -127 0 -124 -29
-574 -59 -913 -8 -91 -17 -216 -21 -278 l-7 -112 -66 -53 c-36 -29 -100 -78
-141 -109 -41 -32 -91 -71 -110 -88 l-35 -31 470 7 c506 7 489 5 518 59 29 54
48 186 54 365 6 190 -2 340 -37 705 -29 310 -46 409 -81 470 -16 28 -32 72
-35 97 l-6 46 -57 -23 c-125 -51 -207 -85 -223 -94 -16 -10 -28 4 -28 34 0 19
220 105 323 125 78 16 168 15 179 -2 4 -7 6 -58 3 -113 -2 -55 -7 -316 -10
-580 -3 -264 -8 -618 -12 -787 l-6 -308 30 0 30 0 6 307 c9 398 7 1481 -2
1513 -7 24 -10 25 -83 24 -42 -1 -105 -7 -141 -14 -60 -11 -67 -10 -84 7 -20
20 -20 20 9 31 15 5 28 14 28 19 0 5 -56 14 -125 19 -68 5 -128 13 -132 17
-10 11 32 336 46 350 6 6 13 9 15 6 2 -2 0 -78 -5 -168 -5 -90 -7 -166 -5
-168 10 -10 163 -24 288 -26 l133 -3 95 56 c52 31 121 71 153 89 l58 33 -6 52
c-3 28 -10 101 -16 161 -14 153 -70 363 -152 570 -48 123 -71 157 -158 235
-86 78 -219 224 -219 240 0 12 139 12 218 1 49 -7 58 -5 97 21 23 15 63 50 87
76 l45 48 13 117 c7 64 17 117 22 117 4 0 8 -66 8 -146 l0 -146 -45 -52 c-25
-29 -45 -60 -45 -68 0 -8 16 -84 36 -169 19 -85 49 -210 65 -279 40 -175 57
-237 58 -220 1 22 -44 262 -79 420 -57 258 -57 250 -35 269 11 10 33 32 50 50
l30 32 -2 127 c-1 80 1 116 7 97 4 -16 8 -74 9 -128 l1 -98 -41 -55 -40 -55
25 -132 c57 -292 78 -434 81 -567 4 -136 40 -493 52 -514 17 -28 67 -85 79
-90 13 -5 64 29 64 44 0 5 -16 18 -35 30 -34 21 -81 77 -73 86 3 2 33 -22 66
-53 53 -50 62 -64 68 -104 6 -44 5 -46 -25 -59 -63 -26 -64 -46 -12 -251 l39
-154 5 -300 c3 -165 3 -286 1 -270 -2 17 -18 116 -34 220 -16 105 -36 251 -45
325 -16 139 -42 249 -77 332 -18 43 -24 48 -62 53 -22 4 -59 5 -80 3 -33 -2
-41 -7 -47 -30 -4 -15 2 -197 13 -405 27 -521 30 -1238 5 -1371 -9 -50 -17
-94 -17 -97 0 -3 22 -5 49 -5 l49 0 7 378 c9 426 0 1102 -15 1237 -6 50 -19
114 -30 143 -11 29 -20 55 -20 57 0 8 78 45 94 45 10 0 20 -23 31 -72 9 -40
27 -109 40 -153 24 -83 60 -280 95 -520 11 -77 34 -232 50 -344 26 -180 40
-236 54 -220 5 6 -12 684 -23 874 -8 136 -15 180 -46 295 -21 74 -39 144 -42
156 -4 16 4 26 29 41 33 19 35 23 37 81 l2 61 -65 62 c-57 54 -66 67 -71 108
-4 25 -19 127 -35 226 -16 99 -38 239 -49 310 -12 72 -21 135 -21 141 0 7 19
12 44 12 116 3 150 52 166 238 5 65 10 168 10 227 l0 108 28 -20 c15 -11 60
-50 99 -88 l73 -68 15 -115 c22 -159 31 -423 16 -478 -12 -41 -87 -157 -181
-278 -28 -36 -40 -59 -33 -61 43 -15 52 -37 72 -188 11 -82 28 -231 37 -330
17 -184 17 -195 -7 -655 -7 -151 -9 -386 -4 -717 l7 -493 118 0 118 0 25 83
c65 213 131 532 148 712 14 148 5 260 -27 367 -23 80 -32 137 -14 90 5 -12 29
-49 52 -83 41 -58 43 -64 46 -142 5 -121 -64 -696 -117 -974 -9 -46 -7 -53 20
-53 21 0 20 -4 54 180 74 393 111 632 121 774 6 90 8 96 18 66 10 -30 18 -35
76 -52 79 -23 140 -19 216 16 35 16 87 29 152 35 89 10 99 14 125 42 15 16 30
43 34 60 5 26 9 29 47 29 39 0 44 4 96 70 30 39 63 93 74 120 12 34 22 47 32
43 15 -6 32 13 99 110 23 34 58 79 78 99 19 21 43 58 53 84 32 84 -4 159 -167
350 -117 136 -305 322 -385 381 -62 45 -62 45 -42 65 42 42 -2 165 -91 255
-28 29 -64 60 -80 69 -23 14 -43 47 -90 154 -34 75 -67 156 -75 181 -8 24 -34
98 -58 164 l-45 120 32 155 c18 85 47 216 65 290 52 220 100 464 92 472 -4 4
-61 19 -127 34 -181 40 -172 39 -180 15 -8 -26 -18 -26 -65 0 l-37 21 -7 122
c-9 164 -32 329 -50 364 -21 41 -25 105 -41 732 -8 305 -17 602 -20 660 -3 58
-10 217 -15 354 l-10 249 55 103 c61 115 65 139 35 224 -18 53 -18 54 0 32 10
-12 20 -28 23 -35 2 -6 8 -9 12 -5 7 6 -8 32 -84 153 -145 230 -220 363 -241
430 -7 22 -21 56 -31 75 -34 65 -34 92 0 128 41 42 39 59 -6 72 -63 17 -88 61
-102 182 -7 56 -19 116 -26 133 -18 41 -153 171 -250 240 -44 32 -116 74 -161
95 -79 38 -162 65 -170 57 -2 -2 56 -33 129 -70 88 -44 149 -82 183 -114 28
-26 73 -69 101 -94 50 -45 52 -47 78 -157 15 -62 24 -118 22 -124 -3 -8 -6 -5
-6 6 -1 10 -10 37 -21 60 -10 23 -24 60 -30 83 -29 115 -203 268 -405 356 -75
33 -81 38 -95 79 -8 23 -23 58 -33 76 -27 48 -13 39 17 -13 27 -45 46 -58 46
-31 0 28 -106 171 -187 252 -83 84 -219 193 -286 232 -35 20 -38 20 -44 4 -4
-9 -11 -21 -17 -25 -8 -6 -8 -10 0 -13 29 -12 159 -105 209 -149 93 -83 214
-236 283 -356 23 -41 40 -59 60 -64 49 -12 156 -66 211 -107 82 -62 158 -152
201 -239 32 -66 71 -171 61 -167 -4 2 -54 59 -110 128 -234 287 -309 344 -746
572 -71 38 -206 105 -299 150 l-168 83 6 50 c29 232 34 257 58 282 21 22 29
24 78 20 30 -3 111 -16 181 -30 116 -22 129 -27 185 -69 32 -25 77 -57 99 -71
22 -15 51 -35 64 -44 23 -17 24 -17 15 -1 -5 10 -30 39 -54 65 -124 132 -170
191 -170 219 l0 28 33 -35 c17 -20 72 -84 120 -142 l89 -107 46 0 c99 0 172
-67 187 -171 4 -26 20 -69 36 -97 26 -46 33 -52 96 -72 120 -40 134 -51 240
-187 127 -165 208 -279 262 -373 24 -41 52 -90 63 -107 11 -18 17 -33 14 -33
-3 0 -27 19 -54 43 -27 23 -62 49 -78 58 -25 13 -31 25 -41 80 -18 96 -65 190
-123 248 -51 51 -76 61 -98 39 -18 -18 -15 -26 16 -33 40 -8 105 -74 136 -137
14 -29 37 -96 50 -148 21 -85 27 -98 59 -120 19 -14 66 -47 103 -74 106 -75
121 -101 52 -91 -31 4 -49 2 -63 -9 -19 -15 -19 -15 13 -16 23 0 40 -9 62 -32
66 -72 139 -228 194 -413 38 -130 44 -127 21 11 -40 234 -116 493 -177 600
-38 67 -196 303 -321 481 -86 124 -109 145 -278 256 -63 42 -122 85 -131 94
-8 10 -26 46 -39 81 -29 76 -77 128 -153 167 -70 35 -160 116 -234 209 -31 39
-69 83 -85 99 l-29 27 37 54 c74 108 72 107 265 127 94 9 172 18 174 20 1 2
24 36 49 74 26 39 88 129 137 200 50 72 107 155 128 185 21 30 69 100 108 155
61 87 124 205 124 231 0 5 22 54 50 109 38 77 60 141 95 280 33 130 62 219
106 320 l61 140 -1 316 c-1 276 -4 327 -20 391 -17 66 -18 93 -11 253 15 335
34 1015 27 1021 -3 3 -24 3 -47 -1 -50 -8 -62 -21 -192 -195 -183 -245 -287
-390 -307 -427 -15 -30 -30 -29 -137 6 -49 16 -159 45 -244 66 -85 20 -179 45
-208 55 -50 17 -55 17 -100 0 -90 -33 -101 -34 -113 -3 -27 72 34 103 105 52
48 -35 60 -30 22 10 l-27 29 26 88 c15 49 37 123 50 164 13 41 40 131 60 200
20 69 48 157 61 197 13 39 24 78 24 87 0 22 -28 19 -72 -7z m-57 -274 c-18
-59 -45 -151 -61 -203 -15 -52 -36 -123 -45 -157 -10 -35 -23 -67 -29 -72 -12
-10 -66 -26 -66 -19 0 16 68 198 120 318 34 80 71 169 83 198 33 85 32 51 -2
-65z m1129 -129 c0 -21 -4 -33 -10 -29 -17 10 -11 65 7 65 2 0 3 -16 3 -36z
m-29 -655 c-6 -137 -11 -273 -11 -304 0 -35 -4 -55 -11 -55 -9 0 -10 29 -6
103 23 408 32 549 35 528 2 -14 -1 -136 -7 -272z m-1028 142 c38 -11 105 -27
150 -36 45 -9 99 -22 120 -28 35 -10 38 -13 33 -38 -4 -21 13 -57 77 -168 45
-78 94 -163 109 -189 35 -60 35 -69 1 -42 -16 12 -107 74 -203 137 -96 63
-183 122 -192 130 -9 8 -35 45 -57 82 -33 54 -51 72 -96 96 -50 27 -66 50 -48
68 10 11 34 8 106 -12z m480 -95 c104 -50 207 -111 284 -168 82 -60 158 -173
227 -337 20 -47 34 -86 32 -88 -3 -3 -123 25 -299 70 l-88 22 -58 85 c-101
149 -182 264 -202 290 -28 36 -34 89 -15 133 8 20 17 37 21 37 3 0 47 -20 98
-44z m495 -652 c27 -18 42 -52 42 -97 0 -45 -46 -230 -76 -306 -27 -68 -26
-90 2 -44 9 15 32 52 51 80 18 29 33 56 33 60 0 5 8 17 16 28 15 18 16 8 10
-125 -10 -226 -6 -213 -79 -232 -34 -8 -100 -29 -146 -47 -46 -17 -85 -31 -87
-31 -9 0 -85 156 -81 169 3 14 90 150 213 337 39 59 40 65 15 162 l-19 73 41
-6 c23 -4 52 -13 65 -21z m-4 -841 c-4 -16 -13 -39 -21 -51 -18 -29 -33 -81
-78 -258 -19 -77 -41 -144 -51 -153 -18 -17 -18 -18 1 62 10 37 -7 35 -79 -8
-32 -19 -60 -35 -61 -35 -2 0 -31 -16 -65 -36 -33 -20 -63 -35 -65 -32 -3 2
68 77 158 166 160 159 164 164 212 267 28 58 51 105 53 105 1 0 0 -12 -4 -27z
m-468 -201 c1 -64 8 -146 16 -182 14 -63 13 -68 -15 -157 -15 -51 -32 -93 -36
-93 -4 0 -24 15 -43 33 -36 32 -36 32 -28 86 5 29 14 119 20 200 14 178 15
186 40 211 39 39 45 27 46 -98z m193 -545 c-18 -29 -40 -61 -49 -72 -10 -11
-52 -72 -95 -135 -82 -120 -125 -177 -125 -164 0 4 6 15 14 23 7 9 25 37 38
62 14 25 47 81 73 125 26 43 63 106 83 139 20 33 47 75 61 94 l26 35 3 -28 c2
-17 -8 -45 -29 -79z m-199 -121 c-30 -104 -51 -147 -135 -276 -45 -69 -94
-144 -108 -167 -42 -67 -58 -70 -90 -18 l-26 44 61 27 c55 26 59 29 42 42 -55
41 -173 88 -304 121 l-145 36 -3 103 -3 103 53 -7 c29 -4 94 -19 143 -34 50
-15 121 -31 160 -35 38 -4 86 -13 105 -21 56 -22 120 -33 120 -22 0 6 -23 32
-51 59 -43 41 -58 49 -89 49 -23 0 -68 14 -111 35 -54 25 -94 36 -147 41 -40
4 -68 10 -61 14 6 5 73 11 149 15 133 7 138 6 186 -18 l49 -25 58 38 59 39 53
-41 53 -41 -18 -61z m-2880 -416 c-14 -4 -34 -8 -45 -8 -16 0 -15 2 5 8 14 4
34 8 45 8 16 0 15 -2 -5 -8z m675 -19 c33 -10 84 -22 113 -26 l52 -7 0 -46 c0
-41 5 -52 62 -116 34 -39 66 -75 72 -81 25 -23 176 -193 176 -198 0 -3 -19 -8
-42 -12 -52 -9 -130 -45 -164 -77 -28 -26 -60 -72 -103 -150 -43 -80 -235
-416 -306 -538 -75 -129 -79 -140 -40 -114 25 16 45 49 128 204 46 86 152 277
200 360 15 25 53 83 85 130 52 77 63 87 110 104 71 25 82 19 82 -47 0 -63 -8
-72 -126 -147 -17 -11 -41 -41 -53 -67 -45 -91 -155 -288 -190 -338 -41 -59
-133 -168 -176 -207 -16 -16 -57 -41 -90 -57 -102 -49 -97 -50 -133 29 -161
346 -217 637 -153 785 19 42 50 72 152 145 72 51 61 66 -18 27 -47 -24 -185
-60 -348 -91 -44 -9 -98 -20 -120 -26 -39 -9 -41 -9 -78 31 -21 22 -37 44 -35
49 5 15 216 115 772 368 73 33 116 67 116 93 0 31 -21 32 -101 5 -41 -13 -135
-43 -209 -66 -74 -23 -160 -50 -190 -60 -161 -54 -321 -101 -332 -98 -33 11
721 254 797 257 17 0 57 -8 90 -18z m-795 -32 c-29 -24 -121 -104 -193 -167
-50 -44 -156 -143 -295 -277 -129 -124 -222 -269 -237 -370 -14 -92 27 -265
82 -347 47 -69 48 -73 14 -47 -17 13 -46 32 -63 41 -54 30 -68 80 -68 242 0
163 13 222 78 353 76 154 141 235 264 334 124 99 179 135 333 213 97 49 125
57 85 25z m1215 -151 l65 -60 0 -76 c0 -43 -4 -83 -8 -89 -5 -9 -27 10 -69 60
-33 39 -76 89 -95 109 -117 128 -120 132 -108 163 l10 26 70 -37 c38 -20 99
-63 135 -96z m1525 97 c0 -6 -66 -66 -85 -78 -7 -4 -23 -3 -35 1 -18 7 -14 12
42 45 60 36 78 43 78 32z m-2906 -203 c-92 -89 -180 -198 -271 -338 -10 -15
-10 -13 0 11 11 27 39 73 99 164 34 51 129 151 163 172 41 25 42 24 9 -9z
m1536 -54 c50 -34 69 -66 85 -143 15 -70 18 -234 6 -289 l-6 -29 -32 27 c-20
17 -49 62 -73 113 -39 83 -40 89 -40 192 0 106 6 151 20 151 4 0 22 -10 40
-22z m271 -393 c-14 -96 -28 -175 -31 -175 -3 0 -11 4 -18 8 -10 7 -8 40 14
168 28 171 29 174 48 174 9 0 6 -42 -13 -175z m125 50 c-7 -27 -19 -87 -26
-131 l-13 -82 -29 10 c-24 9 -28 15 -24 37 3 14 12 76 21 136 23 149 20 144
55 109 29 -29 29 -29 16 -79z m-581 -115 c3 -6 -1 -7 -9 -4 -18 7 -21 14 -7
14 6 0 13 -4 16 -10z m1053 -20 c58 -34 171 -136 235 -214 33 -41 23 -34 -49
34 -80 76 -157 138 -234 192 -41 28 -8 20 48 -12z m-1033 -52 c24 -35 26 -47
22 -106 -6 -110 -63 -338 -115 -467 -38 -93 -150 -249 -127 -176 9 28 -10 27
-82 -5 -255 -113 -602 -207 -832 -226 -123 -10 -152 -9 -306 11 -332 43 -402
56 -380 68 142 78 261 133 288 133 33 0 446 46 507 56 95 17 303 67 370 89
122 42 186 85 280 186 135 145 185 226 209 337 12 60 34 107 63 139 27 30 68
14 103 -39z m77 -61 c-17 -19 -17 -18 -23 15 -3 18 -9 40 -14 48 -4 8 6 2 23
-14 31 -28 31 -30 14 -49z m540 -146 c90 -43 199 -95 243 -116 190 -89 381
-184 399 -198 19 -14 18 -16 -16 -78 -20 -35 -73 -136 -118 -224 -91 -175 -98
-187 -111 -179 -10 6 -235 276 -259 311 -8 11 -37 52 -63 89 -27 37 -70 106
-95 153 -33 62 -68 108 -124 163 -43 43 -78 81 -78 84 0 13 42 74 50 74 5 0
82 -35 172 -79z m-2315 -33 c-3 -8 -6 -5 -6 6 -1 11 2 17 5 13 3 -3 4 -12 1
-19z m1752 -125 c-5 -26 -11 -48 -13 -50 -11 -11 -27 90 -21 129 l8 43 17 -38
c13 -30 15 -48 9 -84z m-1742 75 c-3 -7 -5 -2 -5 12 0 14 2 19 5 13 2 -7 2
-19 0 -25z m-299 -80 c9 -29 18 -334 14 -445 -2 -44 -22 -62 -22 -20 0 13 -12
57 -26 98 -35 97 -40 275 -11 352 10 26 22 47 27 47 5 0 13 -15 18 -32z m349
-80 c-3 -8 -6 -5 -6 6 -1 11 2 17 5 13 3 -3 4 -12 1 -19z m10 -40 c-3 -8 -6
-5 -6 6 -1 11 2 17 5 13 3 -3 4 -12 1 -19z m10 -40 c-3 -8 -6 -5 -6 6 -1 11 2
17 5 13 3 -3 4 -12 1 -19z m2992 -60 c130 -80 330 -262 422 -383 49 -65 98
-150 119 -205 7 -19 21 -42 31 -50 31 -25 44 -155 25 -240 -20 -88 -20 -108 3
-150 10 -19 33 -62 51 -95 l33 -60 -71 73 c-39 39 -75 72 -81 72 -16 0 -1 62
20 86 15 16 39 99 39 135 0 4 -19 2 -41 -6 -54 -20 -172 -19 -334 1 -119 15
-142 15 -244 1 l-113 -15 -76 29 -77 29 100 -5 c55 -4 233 -7 396 -8 320 -2
320 -2 341 52 10 27 1 127 -11 116 -3 -4 -11 -23 -16 -43 l-10 -37 -85 -9
c-74 -7 -102 -5 -218 18 -278 55 -416 104 -480 169 l-41 42 55 100 c69 124
148 272 187 348 16 31 32 57 35 57 2 0 21 -10 41 -22z m-2896 -94 c65 8 383
19 376 13 -5 -7 -328 -37 -390 -37 -32 0 -37 3 -42 29 -15 75 -15 82 -1 37
l16 -48 41 6z m1487 -121 c-25 -197 -24 -194 -111 -238 l-46 -24 1 114 1 114
40 34 c22 19 60 69 85 110 25 41 47 73 49 71 2 -2 -6 -84 -19 -181z m-267
-126 c-3 -31 -9 -57 -12 -57 -3 0 -13 17 -21 37 -15 37 -15 38 10 59 14 12 26
21 27 20 1 -1 -1 -27 -4 -59z m-46 -72 c12 -33 22 -76 22 -95 1 -40 -8 -80
-18 -80 -6 0 -105 162 -116 191 -4 10 4 20 27 31 51 24 61 18 85 -47z m-116
-42 c89 -122 124 -196 110 -236 -6 -17 -9 -15 -20 9 -20 46 -83 142 -129 200
-23 30 -40 59 -37 64 14 22 43 7 76 -37z m2470 -84 c14 -8 -17 -59 -36 -59
-18 0 -26 37 -14 67 5 13 9 48 10 76 l1 52 14 -64 c8 -36 19 -68 25 -72z
m-2543 46 c58 -63 170 -227 178 -262 4 -13 3 -35 0 -49 -7 -26 -7 -26 -29 14
-55 101 -73 132 -124 209 -30 45 -66 94 -79 108 -28 30 -29 35 -10 35 8 0 37
-25 64 -55z m-1429 38 l-26 -4 -7 -262 c-7 -238 -32 -623 -35 -536 0 20 3 141
9 270 5 129 13 303 16 387 l6 152 32 -1 c27 -2 28 -2 5 -6z m74 -10 c-7 -2
-21 -2 -30 0 -10 3 -4 5 12 5 17 0 24 -2 18 -5z m1329 -95 c40 -54 83 -115 96
-135 12 -21 38 -65 58 -98 26 -43 38 -76 42 -114 4 -43 13 -65 43 -105 38 -50
48 -76 29 -76 -5 0 -13 6 -17 13 -15 24 -90 77 -149 105 -55 26 -123 77 -113
86 2 2 46 -12 97 -31 52 -19 96 -32 99 -29 9 8 -236 414 -275 454 -13 14 -7
35 8 30 5 -2 42 -47 82 -100z m-1107 66 c79 -11 211 -17 337 -18 156 -1 208
-4 208 -13 0 -7 9 -36 20 -66 35 -93 164 -207 358 -317 l94 -52 -6 -47 c-15
-105 -48 -296 -53 -301 -2 -3 -107 -4 -231 -2 -204 3 -244 1 -397 -22 -93 -15
-187 -30 -209 -35 -21 -5 -35 -6 -30 -2 12 11 237 86 302 101 60 14 66 25 18
34 -38 7 -84 53 -115 114 -41 81 -78 346 -67 494 l6 86 -28 6 c-15 4 -112 17
-216 31 -103 13 -191 27 -195 31 -3 3 12 4 34 0 22 -3 99 -13 170 -22z m690
-53 c49 -97 80 -132 195 -221 18 -14 55 -44 84 -68 28 -24 70 -55 94 -69 46
-27 50 -42 32 -119 -5 -23 -21 -119 -35 -213 -14 -94 -28 -177 -31 -185 -4
-11 -14 -10 -57 2 -68 19 -343 20 -617 3 -113 -7 -234 -11 -270 -10 l-65 4 55
13 c144 34 314 46 618 46 166 0 302 0 302 1 0 1 11 78 25 171 14 93 25 187 25
209 0 40 -1 40 -83 84 -163 88 -297 206 -342 304 -37 79 -34 88 32 96 7 0 24
-21 38 -48z m404 -146 c85 -99 134 -168 145 -202 4 -13 5 -23 3 -23 -8 0 -72
22 -102 35 -16 7 -50 16 -75 20 -32 5 -59 20 -96 51 -51 44 -51 45 -58 117 -4
39 -10 88 -13 108 -4 30 -1 37 19 46 20 9 28 6 61 -26 22 -20 74 -76 116 -126z
m-222 88 c-3 -10 -5 -2 -5 17 0 19 2 27 5 18 2 -10 2 -26 0 -35z m-23 -50 c7
-57 0 -65 -29 -33 -13 15 -16 28 -10 57 13 73 28 64 39 -24z m33 -40 c-3 -10
-5 -4 -5 12 0 17 2 24 5 18 2 -7 2 -21 0 -30z m2942 -147 c71 -150 89 -180
199 -327 29 -39 49 -69 44 -68 -10 4 -118 130 -145 169 -151 222 -207 314
-207 343 0 13 19 37 30 37 3 0 39 -69 79 -154z m-2583 -167 c66 -37 134 -110
134 -144 0 -14 -2 -25 -5 -25 -3 0 -21 18 -41 40 -44 48 -115 97 -166 112 -24
7 -38 17 -38 28 0 39 34 36 116 -11z m-11 -74 c50 -30 136 -127 134 -153 -1
-10 -4 -27 -7 -40 l-7 -22 -35 28 c-39 31 -140 92 -182 109 -24 11 -26 16 -21
55 2 24 6 48 8 55 5 16 50 3 110 -32z m2293 -93 c2 -40 6 -72 10 -72 19 0 32
27 32 67 l0 43 89 -98 c48 -53 98 -106 110 -116 16 -15 20 -27 16 -47 -4 -18
1 -41 13 -66 23 -44 56 -183 50 -210 -7 -31 -44 41 -68 131 -40 152 -52 185
-85 220 -26 28 -40 36 -68 36 -19 0 -37 5 -39 12 -3 8 -21 7 -68 -5 -36 -9
-66 -14 -69 -11 -2 2 -6 39 -9 82 l-4 77 33 17 c19 9 39 15 44 14 6 -1 11 -35
13 -74z m-190 -79 l-3 -116 -110 -83 c-60 -45 -143 -108 -183 -139 -41 -31
-76 -55 -78 -52 -11 11 -93 251 -88 258 12 20 22 6 38 -53 10 -35 26 -91 38
-126 l20 -63 23 21 23 22 -29 81 c-16 45 -37 99 -46 120 -15 36 -15 38 3 52
27 21 32 19 39 -17 6 -27 25 -89 61 -197 4 -12 9 -10 26 7 24 24 23 29 -31
172 -12 30 -21 60 -21 67 0 14 48 49 56 41 2 -3 16 -47 29 -97 14 -51 30 -101
35 -112 11 -19 11 -19 32 1 20 18 21 24 10 53 -7 17 -26 66 -41 109 l-29 76
67 31 c37 17 75 31 84 31 20 0 31 17 15 23 -7 3 4 6 25 6 l38 1 -3 -117z m62
23 c0 -53 -4 -98 -10 -101 -6 -4 -10 19 -10 63 0 38 -3 84 -6 101 -5 24 -3 31
10 31 14 0 16 -14 16 -94z m-2198 13 c23 -12 66 -46 96 -77 l54 -55 -7 -56
c-4 -31 -9 -58 -11 -60 -2 -2 -40 31 -86 74 -45 42 -97 84 -115 93 -27 13 -33
21 -33 46 0 17 3 41 6 53 7 24 17 22 96 -18z m-1565 -212 c-2 -23 -3 -1 -3 48
0 50 1 68 3 42 2 -26 2 -67 0 -90z m4024 113 c40 -22 76 -122 90 -255 4 -44 9
-89 11 -99 2 -15 -12 -28 -59 -55 -67 -37 -78 -54 -68 -101 5 -23 15 -32 52
-44 26 -9 48 -16 49 -16 6 0 64 134 64 148 0 12 3 13 12 4 7 -7 20 -12 30 -12
15 0 18 -9 18 -58 0 -32 7 -81 16 -108 19 -55 125 -247 133 -239 8 8 7 326 -1
331 -4 3 -21 -2 -37 -11 -35 -18 -36 -17 -46 85 -10 98 -43 313 -50 333 -6 13
-2 17 18 17 30 0 42 -14 50 -58 7 -35 46 -140 77 -210 16 -33 20 -65 20 -143
0 -62 5 -109 13 -122 21 -38 51 -1705 30 -1695 -4 1 -33 29 -63 62 -36 38 -48
57 -35 53 60 -17 85 -18 85 -5 0 23 -14 35 -51 42 l-36 6 -7 178 c-10 270 -25
563 -32 600 -2 17 -9 32 -14 32 -6 0 -9 -157 -7 -400 1 -246 -2 -399 -7 -397
-6 2 -17 14 -26 28 -16 22 -16 47 -8 259 4 129 12 285 17 345 4 61 5 114 1
118 -4 4 -26 -23 -48 -60 -23 -37 -62 -94 -87 -125 -41 -53 -49 -58 -84 -58
-86 0 -88 -5 103 235 31 39 59 76 62 83 8 17 -16 64 -30 59 -5 -2 -35 -48 -66
-103 -83 -149 -100 -169 -255 -304 -79 -69 -142 -129 -140 -135 1 -5 36 -55
77 -110 114 -153 163 -246 227 -425 77 -217 101 -287 101 -298 0 -18 -24 -3
-157 97 l-111 84 -7 66 c-27 277 -80 435 -185 556 -22 26 -40 50 -40 56 0 12
23 12 36 -1 6 -6 18 -8 27 -4 17 6 99 99 157 178 19 26 49 65 67 87 51 64 122
173 145 226 40 91 65 123 97 123 20 0 34 -8 45 -25 26 -39 36 -30 36 35 0 57
-1 60 -25 60 -28 0 -32 12 -10 30 8 7 15 25 15 41 0 44 -27 37 -90 -25 -44
-43 -56 -62 -60 -94 -4 -35 -27 -63 -215 -260 -163 -172 -211 -217 -213 -201
-3 19 13 38 329 372 45 48 66 77 62 87 -3 8 -15 41 -27 73 -12 31 -26 57 -31
57 -6 0 -34 -21 -61 -47 -28 -27 -108 -102 -178 -168 -70 -66 -135 -122 -144
-124 -20 -4 18 38 219 246 142 147 148 155 188 249 22 54 39 100 36 102 -3 3
-15 -6 -28 -19 -19 -21 -160 -153 -367 -345 l-55 -52 -27 38 -26 37 186 175
c103 96 213 200 246 230 l58 55 -15 30 c-20 37 -43 57 -57 48 -7 -4 -97 -81
-202 -171 -169 -146 -217 -183 -206 -156 3 8 199 183 366 326 l83 71 -5 48
c-5 49 -33 100 -65 116 -14 8 -50 -18 -187 -134 -203 -173 -205 -173 -239
-151 -40 26 -31 50 39 108 273 226 358 284 388 264 13 -8 24 -2 54 26 l37 36
-21 84 c-11 46 -18 86 -15 91 6 10 31 9 54 -3z m-2470 -57 c38 -25 85 -63 104
-84 32 -36 34 -42 28 -86 -3 -27 -7 -50 -9 -52 -2 -2 -35 26 -75 63 -39 36
-91 78 -115 94 -45 28 -52 47 -38 100 8 28 15 26 105 -35z m2362 43 c7 -17
-14 -30 -138 -95 -44 -23 -114 -68 -155 -101 -202 -161 -190 -153 -217 -141
l-25 12 53 40 c320 243 403 299 439 299 24 0 40 -5 43 -14z m-1698 -77 c88
-10 264 -30 390 -44 127 -14 234 -27 239 -28 5 -2 -18 -26 -50 -53 -105 -91
-77 -86 -344 -59 -223 23 -379 42 -426 51 -26 5 -121 79 -135 105 -7 13 -6 25
2 40 12 24 21 24 324 -12z m898 -101 c-14 -29 -27 -55 -29 -57 -5 -6 -54 40
-54 51 0 4 9 8 21 8 12 0 34 11 51 25 16 14 31 25 33 25 2 0 -8 -24 -22 -52z
m-1609 3 c32 -19 83 -58 113 -88 50 -49 54 -55 48 -85 -4 -18 -9 -34 -10 -36
-2 -2 -21 16 -43 40 -22 24 -74 65 -116 93 -63 41 -76 54 -76 76 0 25 9 42 19
37 3 -2 32 -18 65 -37z m-1517 -113 c-2 -18 -4 -6 -4 27 0 33 2 48 4 33 2 -15
2 -42 0 -60z m3038 -35 c21 -54 53 -135 72 -180 32 -78 43 -156 24 -167 -4 -3
-39 -2 -77 3 -59 7 -71 12 -93 39 -29 34 -168 299 -161 304 61 45 158 97 181
98 11 0 28 -30 54 -97z m-1759 69 c16 -5 -4 -16 -82 -42 -91 -30 -104 -37
-104 -57 0 -29 0 -29 85 3 144 53 227 74 249 61 24 -12 36 -8 -166 -63 -60
-16 -106 -33 -104 -39 4 -14 37 -10 141 18 86 23 90 23 97 5 4 -10 12 -18 17
-18 5 0 11 -10 13 -22 2 -18 18 -26 95 -48 51 -14 95 -29 99 -33 13 -13 -16
-7 -87 18 -60 21 -71 22 -76 9 -7 -18 -13 -14 75 -43 103 -34 107 -55 7 -31
-70 16 -64 -7 10 -42 70 -32 78 -52 10 -24 -39 17 -55 14 -55 -9 0 -8 23 -21
55 -31 40 -13 55 -22 52 -33 -2 -9 -8 -15 -14 -14 -7 2 -31 6 -55 9 -38 7 -42
6 -30 -8 7 -9 26 -21 43 -28 27 -12 29 -16 23 -44 -3 -17 -8 -32 -9 -34 -2 -2
-25 8 -52 21 -62 31 -192 73 -267 86 -84 15 -216 14 -216 -1 0 -9 -3 -9 -12 0
-26 26 -168 7 -250 -34 -49 -25 -144 -95 -309 -226 l-95 -76 -200 -12 c-109
-7 -203 -16 -209 -22 -5 -5 -17 -55 -26 -111 -30 -196 -61 -383 -73 -448 -14
-75 -18 -66 95 -219 26 -36 57 -78 69 -95 11 -16 51 -71 88 -122 37 -51 85
-118 107 -149 38 -54 159 -218 352 -478 48 -65 110 -146 137 -180 90 -112 106
-142 241 -447 25 -58 58 -119 73 -135 27 -28 70 -68 402 -373 85 -78 156 -146
158 -151 3 -8 -32 -124 -60 -201 -10 -27 -245 -312 -289 -349 -3 -3 -23 -24
-43 -48 l-38 -42 -4 -133 c-1 -72 0 -147 4 -165 5 -22 45 -73 126 -163 65 -71
117 -131 115 -132 -2 -2 -11 -8 -21 -15 -14 -11 -29 1 -114 100 -53 62 -102
116 -109 120 -12 7 -27 -56 -106 -442 -16 -80 -39 -183 -49 -230 -11 -47 -27
-123 -36 -170 -21 -118 -22 -120 -51 -120 -28 0 -28 -3 7 185 22 115 61 330
95 525 22 120 61 338 110 602 l16 88 186 247 c102 137 197 261 210 278 28 33
31 27 -43 80 -167 121 -376 322 -463 445 -53 75 -122 202 -136 250 -33 116
-212 382 -564 840 -340 442 -425 561 -474 665 l-29 60 21 90 c28 122 77 447
97 630 8 82 18 152 20 155 3 3 2 -43 -2 -102 -6 -100 -5 -108 11 -108 52 0
403 63 420 76 11 8 37 26 59 40 21 14 92 64 157 110 139 99 187 120 311 135
51 6 95 12 97 14 2 2 -7 18 -19 34 -26 37 -13 41 20 6 23 -25 50 -33 50 -16 0
5 -7 14 -15 21 -30 25 -5 22 40 -4 59 -35 58 -17 -2 30 -35 27 -41 35 -23 30
73 -21 75 -18 21 23 l-55 41 67 0 c52 0 67 3 67 14 0 20 -10 25 -82 44 -56 15
-63 20 -70 50 -7 25 -22 41 -64 68 -31 20 -70 42 -87 49 -28 13 -8 14 183 14
118 -1 225 -4 236 -7z m1984 -92 c35 -133 39 -166 33 -306 -4 -96 -1 -172 12
-283 l18 -152 49 -25 48 -24 0 -128 c0 -70 5 -145 10 -168 14 -60 73 -183 136
-281 8 -12 14 -41 14 -64 0 -35 11 -59 63 -138 115 -175 181 -360 160 -446
l-8 -35 -31 19 c-25 15 -34 31 -48 82 -22 78 -85 270 -121 364 -29 76 -73 152
-92 160 -7 2 -63 12 -125 21 -120 17 -137 25 -171 83 -22 38 -7 41 35 6 40
-34 105 -35 117 -2 7 19 4 25 -26 40 -43 23 -34 37 23 37 24 0 44 3 44 8 0 4
-30 16 -67 27 -37 10 -78 29 -91 42 -23 23 -110 197 -138 275 -7 21 -31 69
-54 108 -35 60 -46 71 -80 80 -49 13 -305 40 -387 40 -35 0 -63 4 -63 9 0 16
116 23 307 19 l181 -3 39 -31 c56 -45 122 -146 185 -286 31 -67 59 -132 62
-142 4 -10 9 -17 11 -14 10 9 -93 408 -121 470 -9 20 -26 39 -38 43 -11 3 -94
11 -183 17 -114 9 -164 16 -167 25 -10 25 38 37 154 38 63 0 120 4 127 8 24
15 26 65 4 96 -12 16 -21 31 -21 33 0 2 25 4 55 4 31 0 61 6 67 12 14 14 12
83 -8 235 l-16 118 33 54 c18 30 36 52 39 47 4 -4 17 -45 30 -92z m-1295 71
c88 -11 214 -24 280 -31 143 -13 345 -48 362 -62 23 -18 102 -291 103 -352 l0
-28 -72 7 c-40 4 -122 13 -183 21 -60 8 -182 24 -270 35 -228 28 -509 69 -515
76 -5 5 37 1 230 -22 63 -8 192 -21 285 -29 94 -9 236 -23 317 -33 81 -9 151
-13 155 -10 7 7 -2 38 -59 218 l-30 97 -112 11 c-61 7 -158 18 -216 26 -58 8
-190 24 -294 35 -104 11 -192 22 -194 25 -11 11 10 35 30 35 13 0 95 -9 183
-19z m-455 -70 c0 -4 -15 -5 -32 -3 -28 4 -30 6 -13 12 21 8 45 3 45 -9z
m1831 -38 c-8 -15 -10 -15 -11 -2 0 17 10 32 18 25 2 -3 -1 -13 -7 -23z
m-1766 -14 c13 -19 -3 -21 -72 -6 l-68 15 67 1 c38 1 70 -4 73 -10z m1891
-480 c24 -25 26 -31 14 -39 -18 -12 -22 -12 -36 -2 -18 11 -32 77 -38 177 l-5
90 18 -98 c15 -80 23 -103 47 -128z m-2264 -55 c197 -278 201 -285 183 -278
-18 7 -20 -18 -5 -47 6 -10 9 -19 6 -19 -2 0 -30 43 -62 96 -33 52 -68 110
-79 128 -11 17 -31 51 -45 74 -14 23 -39 49 -56 57 -47 22 -153 45 -211 45
-29 0 -53 5 -53 10 0 14 112 12 193 -4 37 -7 67 -9 67 -4 0 9 -27 52 -80 126
-17 24 -26 41 -21 38 6 -4 79 -104 163 -222z m26 216 c60 -14 210 -74 301
-120 113 -57 174 -131 262 -316 32 -69 59 -128 59 -131 0 -3 -26 20 -57 51
-31 31 -77 67 -101 81 -38 21 -44 22 -49 8 -4 -11 4 -25 26 -44 20 -16 28 -29
22 -33 -6 -4 -11 -11 -11 -16 0 -5 37 -53 83 -107 128 -152 144 -175 150 -219
4 -22 33 -94 66 -160 37 -76 67 -154 81 -210 13 -54 29 -98 43 -113 21 -23 21
-24 2 -17 -32 12 -37 12 -42 -1 -3 -7 14 -29 36 -50 45 -40 57 -72 20 -53 -11
7 -22 10 -24 8 -2 -2 36 -71 85 -152 50 -82 90 -150 90 -152 0 -3 12 -23 27
-47 15 -23 32 -51 39 -62 77 -140 70 -133 132 -141 31 -4 95 -7 142 -7 47 0
153 -2 237 -4 l151 -5 7 -35 c3 -19 5 -37 3 -38 -2 -2 -51 3 -108 10 -168 23
-160 25 -160 -40 0 -30 -3 -55 -7 -55 -5 0 -18 -3 -30 -6 -22 -6 -23 -4 -23
60 l0 66 -125 0 c-69 0 -125 -4 -125 -9 0 -5 15 -31 34 -59 33 -50 256 -454
256 -465 0 -3 -24 -3 -54 0 -50 5 -61 2 -155 -46 -56 -28 -103 -51 -105 -51
-2 0 7 21 19 48 13 26 28 74 35 107 7 33 14 67 17 75 2 9 19 -12 40 -54 37
-69 56 -87 74 -69 7 7 2 22 -13 45 -13 20 -30 49 -39 64 -10 16 -47 80 -83
141 -36 62 -66 115 -66 118 0 5 -87 149 -211 350 -81 131 -120 198 -222 385
-16 30 -43 80 -60 110 -17 30 -42 76 -56 102 -14 26 -50 91 -80 145 -30 54
-70 127 -88 162 -19 35 -43 78 -54 95 -10 17 -19 35 -19 40 0 6 14 -12 31 -40
17 -27 46 -71 64 -99 17 -27 62 -99 100 -160 38 -60 72 -114 77 -120 13 -14
-22 62 -53 115 -14 25 -72 128 -127 230 -56 102 -133 230 -172 285 -38 55 -84
120 -101 145 -28 39 -123 177 -169 244 -8 11 -45 64 -82 117 -37 53 -68 99
-68 103 0 9 80 7 128 -4z m-104 -255 c40 -40 81 -103 230 -350 59 -99 168
-279 242 -400 73 -121 181 -299 240 -395 58 -96 162 -267 231 -380 69 -113
132 -218 141 -233 10 -15 50 -78 90 -140 95 -146 115 -200 116 -302 1 -69 -3
-88 -28 -138 -24 -51 -126 -167 -145 -167 -3 0 -5 26 -4 58 1 31 2 63 3 70 0
6 11 22 24 33 23 20 24 23 10 45 -13 19 -13 32 -3 83 20 105 2 209 -50 291
-27 42 -100 174 -316 570 -130 239 -279 503 -330 585 -50 83 -128 207 -171
278 -91 147 -107 173 -152 247 -69 114 -160 229 -186 235 -11 3 -59 6 -106 7
-72 3 -85 6 -88 21 -3 15 7 17 107 17 l110 0 35 -35z m1166 -95 c317 -23 474
-41 493 -58 35 -31 135 -282 144 -358 10 -87 33 -83 -496 -77 -445 6 -470 8
-471 36 0 5 183 5 408 1 224 -5 430 -8 457 -9 49 0 50 1 59 35 7 29 2 51 -28
130 -20 52 -46 123 -58 157 -21 61 -23 62 -62 67 -98 12 -341 27 -591 37 -148
6 -276 13 -284 15 -32 10 6 19 97 25 161 9 182 9 332 -1z m-840 -222 c0 -17
-10 -6 -25 25 l-16 32 20 -25 c11 -14 21 -28 21 -32z m387 -41 c72 -77 42 -66
-39 14 -52 52 -63 67 -40 53 19 -10 54 -41 79 -67z m-847 -657 c222 -371 413
-691 425 -710 13 -19 53 -87 90 -150 38 -63 78 -131 90 -150 69 -110 155 -257
155 -265 -1 -6 -9 4 -18 20 -9 17 -96 150 -193 295 -97 146 -229 346 -294 445
-65 99 -188 286 -273 415 -256 387 -458 694 -466 707 -4 8 6 29 25 53 26 32
35 38 44 28 7 -7 193 -317 415 -688z m508 627 c18 -27 27 -45 22 -42 -12 7
-60 81 -60 91 0 9 0 9 38 -49z m-63 13 c9 -16 13 -30 11 -30 -3 0 -12 14 -21
30 -9 17 -13 30 -11 30 3 0 12 -13 21 -30z m59 -96 c3 -8 2 -12 -4 -9 -6 3
-10 10 -10 16 0 14 7 11 14 -7z m64 -19 c-3 -3 -9 2 -12 12 -6 14 -5 15 5 6 7
-7 10 -15 7 -18z m2027 -92 c4 -14 2 -23 -4 -23 -6 0 -11 1 -11 3 0 1 -4 18
-10 37 -8 29 -8 32 4 20 8 -8 17 -25 21 -37z m-543 -110 c31 -26 55 -49 53
-52 -2 -2 -25 0 -50 3 -40 6 -48 12 -65 46 -11 22 -20 42 -20 45 0 16 32 0 82
-42z m113 -2 c42 -61 24 -70 -24 -12 -36 43 -40 51 -23 51 11 0 31 -16 47 -39z
m-220 -39 c-2 -2 -19 -2 -38 2 -40 7 -69 52 -39 59 16 3 87 -52 77 -61z
m-2913 -36 c73 -18 72 -17 111 -84 39 -68 49 -92 38 -92 -7 0 -164 132 -215
181 -13 12 -3 11 66 -5z m2913 -7 c121 -14 495 -78 511 -87 29 -16 109 -132
150 -219 31 -65 47 -113 55 -168 6 -42 8 -79 6 -82 -3 -2 -20 2 -38 10 -29 12
-45 34 -103 143 -112 209 -150 245 -284 270 -105 19 -390 43 -537 45 -66 1
-154 4 -195 8 l-75 6 98 14 c62 9 134 11 200 8 91 -6 99 -5 72 7 -16 8 -86 20
-155 27 l-125 14 130 5 c72 3 146 6 165 7 19 2 76 -2 125 -8z m1108 -212 c75
-57 143 -112 151 -123 7 -10 16 -50 20 -89 6 -75 3 -73 -36 30 -22 58 -25 61
-94 93 -52 25 -75 43 -88 67 -10 17 -40 49 -67 70 -58 44 -67 55 -42 55 10 0
80 -47 156 -103z m-1693 63 c91 -5 221 -12 290 -16 69 -3 131 -7 138 -10 9 -2
0 -23 -28 -64 -38 -57 -43 -60 -73 -56 -81 13 -520 56 -571 56 -13 0 -16 10
-16 48 0 27 2 51 5 54 3 3 25 4 48 2 23 -2 116 -8 207 -14z m786 -65 c28 -8
63 -24 77 -35 29 -23 77 -114 77 -147 0 -40 -40 -13 -61 42 -40 104 -96 135
-269 146 l-125 8 -23 -27 -24 -27 17 34 17 34 132 -6 c72 -3 154 -13 182 -22z
m-346 -187 c-6 -58 -16 -193 -24 -300 -7 -108 -16 -201 -20 -207 -4 -6 -21
-11 -37 -11 l-31 0 7 78 c3 42 15 172 26 287 l20 210 31 28 c16 16 32 27 34
24 2 -2 -1 -51 -6 -109z m285 13 l30 -7 0 -84 c0 -61 -4 -85 -14 -88 -10 -3
-12 9 -10 63 l4 67 -70 19 c-38 10 -91 23 -117 30 -48 11 -64 22 -54 37 5 8
148 -15 231 -37z m-3252 -88 c17 -22 17 -28 -8 -195 -59 -400 -76 -509 -94
-618 -11 -63 -23 -140 -26 -170 -3 -30 -15 -104 -25 -165 -11 -60 -27 -159
-35 -220 -14 -102 -26 -180 -90 -580 -13 -82 -29 -188 -35 -235 -6 -47 -17
-119 -25 -160 -8 -41 -21 -127 -30 -190 -8 -63 -22 -151 -30 -195 -7 -44 -19
-174 -26 -290 l-12 -210 -67 -120 c-37 -66 -89 -159 -117 -206 -27 -48 -53
-94 -57 -104 -3 -10 -9 -16 -11 -13 -6 6 18 274 40 448 8 63 19 171 26 240 12
139 5 123 153 352 57 89 63 109 86 323 12 110 28 245 35 300 8 55 22 170 30
255 9 85 20 182 25 215 5 34 21 164 35 290 14 127 28 237 30 245 2 8 14 103
25 210 11 107 29 258 39 335 11 77 22 172 26 210 8 94 35 307 41 323 4 15 61
-29 97 -75z m3517 3 c195 -69 190 -66 190 -87 0 -23 -31 -89 -42 -89 -15 0
-20 28 -8 49 12 24 10 25 -135 79 -96 36 -141 46 -149 34 -3 -5 -8 -27 -12
-48 l-6 -40 121 -49 c66 -27 119 -50 117 -53 -2 -2 -44 10 -93 26 -48 17 -104
35 -125 40 l-36 10 -12 -47 c-7 -25 -23 -102 -36 -170 -13 -69 -29 -130 -35
-135 -9 -8 -10 -4 -5 14 3 14 17 88 31 166 31 175 81 344 103 344 4 0 63 -20
132 -44z m-386 -60 c84 -14 122 -26 80 -26 -30 0 -196 28 -202 34 -9 9 27 7
122 -8z m1488 -85 l56 -67 8 -186 c3 -102 4 -206 0 -233 l-8 -47 -24 23 c-24
22 -24 23 -24 231 l0 208 -40 44 c-26 28 -40 53 -40 70 0 14 3 26 8 25 4 0 33
-31 64 -68z m-766 1 c214 -131 230 -144 201 -174 -7 -7 -25 -34 -40 -60 -16
-28 -35 -48 -45 -48 -16 1 -16 1 0 11 10 5 30 30 44 55 23 39 25 48 13 59 -28
28 -224 165 -236 165 -6 0 -16 -12 -21 -27 -10 -26 -10 -24 -11 20 -1 26 3 47
7 47 5 0 44 -22 88 -48z m-659 -24 c-4 -18 -16 -90 -28 -160 -16 -96 -26 -128
-37 -128 -10 0 -13 7 -9 23 3 12 17 84 33 160 15 75 32 137 37 137 5 0 7 -15
4 -32z m603 -120 c30 -28 50 -49 45 -47 -17 7 -114 84 -114 92 -2 15 16 4 69
-45z m-130 10 c0 -7 9 -24 20 -38 18 -23 29 -110 15 -110 -4 0 -19 7 -36 15
-16 9 -34 13 -39 10 -20 -12 -9 -45 19 -60 l30 -15 -25 -62 c-32 -82 -35 -85
-84 -63 -22 10 -40 20 -40 23 0 4 55 147 85 222 8 19 19 47 25 63 10 27 30 37
30 15z m540 -124 c88 -76 109 -104 81 -104 -5 0 -19 11 -32 23 -13 13 -57 52
-97 86 -40 34 -70 66 -67 72 4 5 8 9 11 9 3 0 50 -39 104 -86z m-319 29 c13
-16 12 -17 -3 -4 -10 7 -18 15 -18 17 0 8 8 3 21 -13z m-426 -20 c33 -16 54
-32 51 -40 -3 -7 -11 -39 -18 -73 -14 -68 -8 -66 -104 -24 l-53 23 14 48 c9
26 18 58 21 71 8 29 22 28 89 -5z m666 -30 c17 -20 18 -23 3 -10 -26 21 -32
21 -57 0 -21 -18 -16 -3 8 24 15 17 19 16 46 -14z m-294 -72 l42 -32 -37 -67
c-65 -117 -51 -108 -115 -76 -32 15 -57 30 -57 33 0 3 16 33 35 66 19 33 42
75 52 92 10 20 21 29 27 25 6 -5 30 -23 53 -41z m233 15 c0 -8 29 -33 65 -55
36 -23 65 -46 65 -51 0 -5 -34 14 -75 42 -67 46 -94 78 -65 78 6 0 10 -6 10
-14z m-74 -48 c13 -55 4 -90 -44 -174 l-46 -82 -36 26 c-19 14 -37 27 -39 29
-6 3 142 233 150 233 4 0 11 -15 15 -32z m-586 -45 c107 -36 110 -38 110 -78
0 -19 -3 -35 -7 -35 -3 0 -57 17 -120 38 l-113 37 0 38 c0 36 1 37 28 31 15
-3 61 -18 102 -31z m1099 -122 c39 -18 71 -37 71 -42 0 -5 -15 -9 -34 -9 -58
0 -60 -7 -47 -228 7 -139 20 -247 41 -360 42 -222 63 -284 118 -354 25 -32 42
-61 39 -64 -3 -4 -28 5 -54 18 -36 19 -53 36 -69 69 -12 24 -49 101 -83 170
-81 167 -92 177 -212 190 -99 12 -119 20 -119 49 0 10 -7 23 -15 30 -24 20
-18 33 28 62 123 78 197 188 197 292 -1 68 -19 157 -46 228 -17 46 -17 48 1
68 18 20 18 20 66 -33 34 -38 67 -62 118 -86z m-198 37 c7 -25 9 -78 6 -128
-4 -70 -11 -97 -39 -155 -39 -82 -84 -149 -126 -189 l-31 -28 -5 38 c-4 22
-14 71 -23 111 l-16 71 83 139 c112 188 109 183 125 183 8 0 19 -18 26 -42z
m-177 -40 c-3 -10 -23 -57 -45 -103 l-40 -85 -30 17 c-17 10 -40 28 -51 40
-19 21 -20 24 -6 40 9 10 26 38 38 63 13 24 31 56 42 71 l20 27 39 -26 c29
-19 38 -30 33 -44z m-478 6 c123 -83 164 -118 164 -141 0 -28 7 -31 -112 50
-71 48 -108 87 -108 112 0 11 20 3 56 -21z m1144 1 c25 -13 41 -35 25 -35 -14
0 -55 25 -59 36 -7 18 -2 17 34 -1z m232 -11 c57 -14 108 -27 115 -29 9 -3 8
-18 -3 -62 -18 -74 -49 -211 -64 -286 -6 -32 -14 -57 -16 -54 -6 6 34 270 46
302 6 16 9 34 6 40 -4 11 -103 35 -203 50 -49 8 -47 5 -31 40 14 31 23 31 150
-1z m-1584 -19 c50 -24 51 -25 41 -55 -14 -37 -25 -45 -65 -41 -18 1 -35 -3
-39 -9 -4 -7 -11 -64 -16 -127 -5 -64 -11 -118 -13 -120 -2 -3 -60 -13 -128
-24 -68 -10 -135 -21 -149 -24 -22 -5 -28 -1 -39 25 -12 29 -71 70 -102 70
-18 0 -150 207 -146 228 2 9 18 27 37 39 42 28 121 30 346 8 214 -21 205 -22
205 20 0 19 4 35 8 35 5 0 31 -11 60 -25z m1395 -98 c84 -61 150 -122 146
-135 -3 -9 -15 -7 -44 8 -53 27 -78 25 -118 -10 -36 -31 -75 -105 -62 -118 4
-4 9 -2 11 3 9 24 45 75 53 75 4 0 25 -21 45 -47 46 -59 49 -111 9 -151 l-27
-27 -13 33 c-7 17 -18 32 -23 32 -16 0 -11 -30 11 -67 24 -38 23 -40 -19 -52
l-30 -9 -7 56 c-4 32 -15 66 -25 77 -9 11 -25 41 -34 66 -25 65 -65 123 -137
196 -72 72 -73 93 -7 93 24 0 68 -7 98 -15 91 -24 100 -22 101 28 0 35 2 39
11 22 5 -11 33 -37 61 -58z m-1166 6 c132 -76 126 -69 107 -125 l-15 -47 -99
67 -99 67 -1 48 c0 26 2 47 4 47 3 0 49 -25 103 -57z m289 -106 c52 -40 72
-62 82 -91 7 -22 11 -40 10 -42 -3 -2 -163 117 -181 135 -10 10 0 51 13 51 4
0 39 -24 76 -53z m-354 -67 c48 -29 90 -48 100 -44 23 7 29 -7 13 -36 -12 -22
-10 -26 24 -52 20 -16 59 -47 88 -69 l52 -41 0 -133 c1 -125 -1 -134 -19 -140
-11 -4 -27 -23 -35 -42 l-15 -36 -63 7 c-34 3 -98 11 -142 16 -44 5 -114 9
-155 10 -134 1 -142 5 -267 135 -111 115 -111 116 -123 181 -6 37 -10 67 -8
69 2 1 59 8 128 14 225 21 216 19 265 67 31 31 47 58 56 94 7 27 14 50 15 50
2 0 40 -22 86 -50z m343 -52 l96 -93 -28 -27 -29 -28 -87 86 c-48 46 -87 89
-87 94 0 16 23 60 31 60 5 0 51 -42 104 -92z m-1055 -93 c33 -17 123 -113 116
-123 -3 -5 -31 -14 -63 -21 -52 -12 -114 -43 -212 -108 -19 -13 -37 -23 -42
-23 -4 0 -10 26 -14 58 -7 68 -20 102 -38 102 -7 0 -43 -20 -80 -44 -36 -25
-83 -48 -104 -51 -34 -6 -26 2 72 66 61 40 152 94 203 121 96 50 106 51 162
23z m2124 -31 c6 -10 15 -22 20 -25 10 -8 -16 -135 -69 -334 -20 -77 -39 -150
-42 -162 -4 -17 -13 -23 -34 -23 -40 0 -55 28 -80 149 l-21 104 31 30 c33 34
50 32 31 -4 -11 -20 -9 -25 14 -42 31 -23 32 -36 5 -88 -22 -45 -21 -59 4 -32
43 48 77 205 77 352 0 88 35 129 64 75z m-983 -135 l-10 -24 0 26 c-1 14 2 29
6 33 12 12 14 -9 4 -35z m-1011 -14 l23 -25 -21 -23 c-28 -29 -28 -37 1 -38
61 -2 61 -10 -7 -95 -50 -62 -73 -83 -103 -92 -47 -14 -112 -57 -285 -187
-151 -114 -247 -180 -251 -174 -2 2 -15 21 -30 41 -15 20 -27 40 -27 45 0 4
28 26 63 48 220 143 549 370 562 388 14 20 14 22 -4 25 -23 4 -44 -7 -204
-101 -67 -40 -169 -94 -227 -121 -58 -27 -111 -53 -117 -59 -7 -5 -13 -7 -13
-4 0 8 187 157 250 198 171 113 241 155 290 175 71 29 72 29 100 -1z m1770
-23 c0 -15 -2 -15 -10 -2 -13 20 -13 33 0 25 6 -3 10 -14 10 -23z m-675 -101
c71 -62 81 -74 87 -113 18 -114 3 -432 -23 -480 -5 -10 -22 -24 -37 -32 -34
-17 -113 -29 -127 -19 -6 4 -25 82 -43 172 l-32 164 45 46 46 46 -3 143 c-2
78 -1 142 2 142 3 0 41 -31 85 -69z m-863 -148 c51 -37 107 -78 123 -91 37
-29 235 -242 235 -253 0 -4 -13 -10 -30 -14 -40 -9 -48 -25 -13 -25 32 0 105
-43 142 -84 32 -34 16 -33 -42 4 -89 56 -68 23 29 -46 47 -33 63 -52 68 -76 3
-17 5 -32 3 -34 -1 -1 -29 20 -62 48 -76 63 -156 118 -172 118 -7 0 -13 -9
-13 -20 0 -15 -7 -20 -26 -20 -18 0 -25 4 -21 14 5 12 -19 40 -65 75 -20 15
-51 -1 -156 -82 -57 -44 -65 -47 -76 -32 -11 15 -17 15 -54 4 -54 -16 -61 -26
-69 -88 -3 -28 -10 -51 -16 -51 -5 0 -7 13 -3 33 4 17 9 49 13 71 6 41 13 45
133 90 83 30 83 31 -11 140 -4 5 -22 0 -41 -11 -71 -43 -467 -243 -480 -243
-21 0 -51 37 -45 54 7 18 71 60 322 210 147 89 157 98 153 144 -3 33 -6 37
-35 40 -36 4 -90 -22 -285 -135 -189 -109 -225 -128 -208 -111 37 38 344 290
415 343 43 31 162 93 182 94 7 1 54 -29 105 -66z m1736 -210 c56 -165 182
-430 223 -471 32 -33 129 -185 129 -203 0 -4 -14 -10 -31 -14 -24 -5 -38 -2
-61 15 -25 18 -31 20 -41 8 -7 -8 -57 -29 -111 -47 -95 -31 -101 -32 -113 -15
-19 27 -16 132 6 180 20 44 42 54 125 54 30 0 37 3 26 10 -27 17 -125 11 -184
-11 -32 -13 -87 -47 -125 -80 l-69 -57 -6 36 c-7 44 0 50 124 119 74 41 95 48
160 53 l75 5 -3 33 c-6 59 -38 118 -77 142 -43 26 -91 24 -196 -9 -77 -25
-111 -29 -115 -16 -6 15 160 64 231 69 71 5 65 4 65 16 0 6 -35 10 -84 10
l-83 0 -7 31 c-3 17 -6 44 -6 60 0 26 5 30 45 41 52 14 59 41 12 46 -15 2 -27
6 -27 10 0 8 72 82 80 82 3 0 20 -44 38 -97z m-349 -107 l44 -45 13 -263 c7
-144 12 -264 10 -265 -4 -4 -41 83 -80 187 l-35 95 -1 -91 c0 -165 -74 -378
-157 -456 l-24 -22 25 54 c38 82 83 238 95 325 19 133 12 216 -33 430 -8 39
-17 99 -21 134 l-7 63 63 -50 c35 -28 84 -71 108 -96z m78 -18 c-2 -13 -4 -3
-4 22 0 25 2 35 4 23 2 -13 2 -33 0 -45z m-1286 -114 c13 -14 23 -35 21 -45
-2 -11 2 -27 10 -36 12 -15 7 -15 -50 -9 -35 4 -70 10 -79 13 -36 14 -5 -23
37 -45 72 -36 58 -45 -17 -11 l-68 30 -22 -28 c-31 -38 -29 -46 7 -28 43 22
55 19 95 -23 94 -102 133 -184 135 -287 5 -162 0 -171 -75 -135 -52 25 -55 36
-6 19 38 -13 61 1 61 37 0 24 -14 32 -25 14 -11 -18 -41 -11 -83 20 -42 30
-55 60 -26 60 8 0 38 -10 65 -21 27 -12 52 -19 56 -16 3 4 -1 36 -10 73 -16
64 -55 129 -136 224 l-29 34 -40 -28 c-47 -32 -62 -28 -62 18 0 35 -2 33 135
141 38 30 72 55 75 55 4 0 17 -12 31 -26z m1610 -59 c9 -17 19 -42 23 -56 6
-26 5 -27 -59 -31 -56 -3 -69 -8 -97 -35 -32 -30 -126 -83 -148 -83 -5 0 -10
5 -10 11 0 5 5 7 10 4 15 -9 118 52 137 81 10 15 33 29 59 36 47 13 55 30 33
69 -10 20 -19 21 -94 3 -18 -5 -18 -4 -2 6 19 12 93 29 116 26 8 0 22 -15 32
-31z m-174 -11 c-3 -3 -12 -4 -19 -1 -8 3 -5 6 6 6 11 1 17 -2 13 -5z m-44
-11 c-7 -2 -19 -2 -25 0 -7 3 -2 5 12 5 14 0 19 -2 13 -5z m-46 -9 c-3 -3 -12
-4 -19 -1 -8 3 -5 6 6 6 11 1 17 -2 13 -5z m-28 -103 c2 -67 -6 -45 -12 34 -4
44 -3 59 2 40 5 -16 9 -50 10 -74z m-1079 27 c55 -74 91 -132 97 -156 6 -23 4
-24 -23 -18 -16 4 -51 21 -78 37 -26 17 -50 28 -53 26 -5 -6 33 -45 73 -75 25
-18 26 -21 9 -22 -49 0 -62 12 -103 95 -23 46 -42 90 -42 97 0 7 9 28 20 46
19 31 21 32 48 18 15 -8 38 -29 52 -48z m-620 -130 c38 -39 72 -110 64 -131
-5 -13 -35 -33 -38 -25 -16 42 -56 103 -73 110 -21 10 -21 12 -5 44 8 19 17
34 18 34 2 0 17 -15 34 -32z m109 -87 c0 -14 -1 -14 -6 -1 -3 8 -10 24 -15 35
-9 20 -9 20 6 1 9 -11 16 -27 15 -35z m664 19 c3 -12 0 -20 -8 -20 -8 0 -11 8
-8 20 3 11 7 20 8 20 1 0 5 -9 8 -20z m-634 -162 c1 -10 -3 -18 -9 -18 -5 0
-10 17 -9 38 0 30 2 33 9 17 5 -11 9 -28 9 -37z m2063 -19 c3 -28 8 -34 45
-44 33 -10 44 -10 55 0 11 11 26 5 83 -33 65 -42 241 -210 231 -220 -3 -2 -61
14 -130 37 -72 24 -144 41 -171 41 -33 0 -45 4 -45 15 0 24 -65 90 -107 109
-36 16 -83 69 -83 94 0 6 12 14 28 18 15 3 32 7 37 9 36 12 54 4 57 -26z
m-2461 -35 c21 -22 24 -35 23 -92 -2 -77 -31 -176 -54 -180 -20 -3 -60 66 -60
102 0 46 42 196 54 196 7 0 23 -12 37 -26z m2325 -24 c20 -22 64 -53 100 -70
67 -32 90 -60 72 -92 -13 -26 -25 -22 -58 16 -16 18 -59 51 -96 72 -72 42 -95
73 -74 99 7 8 14 15 16 15 2 0 20 -18 40 -40z m-311 -253 c8 -119 14 -275 13
-345 -2 -113 -2 -117 -5 -32 -2 52 -10 199 -18 325 -14 216 -17 320 -9 285 2
-8 10 -113 19 -233z m-1782 111 c12 -1 43 0 70 1 28 2 47 -1 47 -8 0 -16 -45
-24 -94 -17 l-43 7 -74 -283 -74 -283 -7 74 c-6 58 -3 92 13 165 11 50 34 152
50 226 17 74 30 150 30 169 l0 33 29 -41 c18 -25 39 -42 53 -43z m912 -135
c-6 -48 -10 -55 -38 -67 -18 -7 -87 -39 -155 -71 -96 -46 -127 -56 -143 -49
-19 9 -18 11 21 37 29 19 55 27 85 27 40 0 115 23 115 36 0 3 -23 4 -50 3 -59
-3 -73 7 -68 52 3 33 4 34 58 40 65 7 116 28 150 60 24 23 25 23 28 5 2 -11 1
-44 -3 -73z m-1069 41 c-6 -15 -56 -20 -56 -5 0 5 12 19 28 31 24 19 27 20 30
5 2 -9 1 -23 -2 -31z m2659 -9 c78 -26 129 -61 140 -96 7 -22 -24 -87 -34 -71
-12 19 -62 32 -140 37 -75 5 -76 5 -35 -9 77 -26 101 -44 118 -87 10 -24 18
-59 18 -80 1 -61 12 -61 42 2 16 32 32 57 34 54 3 -2 -12 -36 -32 -75 l-37
-70 23 -9 c13 -6 45 -19 71 -30 l48 -21 27 25 c24 23 26 27 13 47 -8 13 -15
40 -16 61 -2 30 -10 45 -31 63 -36 29 -22 30 62 2 51 -16 67 -19 73 -9 10 16
68 -40 77 -74 6 -25 -14 -107 -48 -192 -19 -49 -22 -52 -47 -47 -14 4 -77 19
-139 35 -62 16 -122 29 -132 29 -20 0 -30 -19 -30 -60 0 -47 -12 -91 -27 -97
-7 -3 -49 5 -93 18 -101 29 -107 49 -16 49 36 0 68 5 71 10 4 6 -5 31 -20 56
-15 25 -25 48 -22 50 3 3 22 -2 42 -10 21 -9 41 -16 45 -16 6 0 30 52 30 66 0
4 -120 60 -150 70 -21 7 -14 9 37 15 35 4 68 11 74 15 7 4 -5 23 -31 49 -41
42 -42 43 -26 68 l17 24 -72 23 c-82 27 -89 37 -89 135 0 50 4 66 18 75 24 15
93 6 187 -25z m204 -139 c-9 -8 -10 -7 -5 7 3 10 7 24 7 30 1 7 3 4 6 -7 3
-10 -1 -23 -8 -30z m61 -1 c28 -33 -16 -84 -46 -53 -16 16 -16 18 0 42 19 30
29 32 46 11z m-1062 -295 c-2 -123 -7 -161 -20 -185 l-17 -30 -1 40 c-1 22 -1
108 0 192 1 99 -3 154 -10 158 -6 4 -48 -23 -93 -59 -139 -110 -134 -107 -140
-92 -8 21 2 30 143 125 l135 91 3 -43 c2 -23 2 -112 0 -197z m-2647 146 c11
-22 6 -29 -52 -83 -96 -90 -146 -133 -151 -133 -12 0 -150 191 -144 197 4 4
36 -24 72 -62 l64 -69 38 36 c98 93 148 138 155 138 4 0 12 -11 18 -24z m2704
-423 c-8 -59 -15 -86 -22 -80 -5 6 17 127 24 127 2 0 1 -21 -2 -47z m101 -245
c8 -15 14 -33 14 -40 -1 -7 -9 1 -18 19 -9 17 -34 50 -54 73 -56 61 -57 71 -4
20 26 -25 54 -57 62 -72z m-5405 -110 c-12 -90 -30 -239 -41 -333 -10 -93 -28
-237 -39 -320 -10 -82 -22 -182 -26 -221 -4 -39 -10 -75 -13 -81 -5 -6 -38 -6
-100 0 l-93 10 6 41 c3 23 12 115 20 206 27 291 45 409 70 454 12 23 35 64 51
92 16 28 63 113 104 187 41 75 76 134 78 132 2 -2 -6 -77 -17 -167z"/>
<path d="M8788 7705 c-26 -37 -28 -65 -3 -65 15 0 38 61 33 86 -2 12 -10 6
-30 -21z"/>
<path d="M8884 7275 c-12 -31 4 -97 30 -124 l25 -26 -65 -69 c-51 -54 -63 -73
-58 -90 11 -35 44 -96 52 -96 4 0 33 55 65 121 l57 121 -25 30 c-34 40 -41 73
-21 103 17 26 15 29 -27 39 -20 5 -29 2 -33 -9z"/>
<path d="M9083 7192 c-10 -7 -3 -256 12 -438 7 -73 12 -83 121 -224 l27 -35
-7 130 c-3 72 -6 152 -6 179 l0 48 -55 -7 -55 -6 0 174 c0 137 -3 176 -13 180
-8 3 -19 2 -24 -1z"/>
<path d="M8986 4719 c-9 -13 -16 -27 -16 -31 0 -7 99 -38 125 -38 27 0 15 52
-15 67 -54 25 -77 26 -94 2z"/>
<path d="M7897 10012 c12 -9 65 -42 119 -72 53 -30 135 -78 183 -106 47 -28
88 -50 90 -48 2 2 -13 33 -34 69 -38 68 -56 80 -37 26 6 -17 9 -31 6 -31 -3 0
-24 13 -47 28 -127 86 -361 197 -280 134z"/>
</g>
</svg>
