<?xml version="1.0" standalone="no"?>
<!DOCTYPE svg PUBLIC "-//W3C//DTD SVG 20010904//EN"
 "http://www.w3.org/TR/2001/REC-SVG-20010904/DTD/svg10.dtd">
<svg version="1.0" xmlns="http://www.w3.org/2000/svg"
 width="600.000000pt" height="791.000000pt" viewBox="0 0 600.000000 791.000000"
 preserveAspectRatio="xMidYMid meet">
<metadata>
Created by potrace 1.16, written by Peter Selinger 2001-2019
</metadata>
<g transform="translate(0.000000,791.000000) scale(0.100000,-0.100000)"
fill="#000000" stroke="none">
<path d="M1746 7623 c-3 -21 -12 -114 -21 -208 -39 -439 -48 -621 -50 -1055
-3 -428 -4 -456 -36 -745 -32 -294 -33 -309 -35 -785 -1 -321 -6 -506 -14
-545 -6 -33 -15 -175 -20 -315 -5 -140 -16 -307 -25 -370 -30 -205 -11 -425
49 -560 10 -24 -61 -134 -139 -213 -124 -127 -322 -275 -536 -400 -205 -120
-593 -408 -817 -608 l-102 -90 0 -864 0 -865 3000 0 3000 0 0 965 0 965 -27 6
c-514 117 -993 351 -1493 730 -74 56 -161 118 -193 137 -49 29 -63 44 -86 93
-29 60 -59 98 -99 124 l-23 15 46 70 c25 39 63 88 85 110 33 34 43 56 71 157
29 106 35 117 58 123 82 20 138 98 166 232 8 39 29 109 46 155 29 78 91 280
103 340 l6 27 41 -14 c130 -46 277 -164 339 -273 39 -69 66 -83 55 -29 -3 17
-24 69 -45 113 -62 128 -171 221 -316 268 l-51 17 8 47 c4 26 8 73 8 105 1 55
2 57 29 57 96 -1 259 -60 403 -147 50 -30 93 -52 95 -50 8 8 -143 141 -199
175 -30 18 -85 44 -122 56 l-66 24 43 20 c24 11 61 23 83 27 21 4 56 15 77 26
37 19 40 19 90 2 38 -13 84 -18 158 -18 94 0 111 3 166 28 34 16 77 45 95 64
38 40 37 40 -46 -2 -75 -37 -175 -45 -256 -21 -58 17 -87 32 -78 40 13 14 135
37 229 44 104 8 105 8 65 21 -22 7 -83 15 -135 18 -84 5 -104 2 -169 -20 l-75
-25 -50 47 c-28 26 -64 57 -79 69 l-29 21 29 6 c115 25 168 41 238 75 156 75
223 149 85 94 -79 -32 -192 -53 -285 -53 l-70 0 84 25 c105 31 231 83 231 95
0 5 11 9 25 9 16 0 25 6 25 15 0 11 -11 15 -42 15 -173 1 -416 106 -597 258
-63 54 -57 60 49 61 113 1 243 -47 367 -135 42 -30 68 -43 74 -37 17 17 -115
128 -210 177 -62 32 -98 58 -127 93 -59 70 -59 72 -14 57 62 -22 169 -35 250
-32 82 3 107 23 43 33 -239 41 -391 116 -518 254 -54 59 -47 57 60 -10 256
-161 517 -183 662 -55 38 34 104 136 87 136 -3 0 -26 -20 -50 -46 -119 -122
-284 -126 -414 -7 -24 21 -84 85 -133 143 -137 158 -126 144 -97 135 56 -17
170 -80 245 -137 91 -69 167 -109 248 -133 84 -24 103 -15 38 18 -120 61 -273
178 -455 346 -130 121 -197 157 -318 175 -46 7 -101 22 -123 33 -61 32 -143
53 -202 53 l-53 0 82 97 c111 130 148 165 216 201 94 50 171 66 315 66 110 0
124 2 103 13 -42 22 -148 43 -218 43 -193 0 -351 -86 -484 -267 -62 -83 -89
-89 -44 -10 46 81 98 141 194 225 86 75 225 185 256 202 10 6 12 12 5 19 -7 7
-31 -4 -75 -31 -131 -84 -283 -128 -535 -158 -55 -7 -140 -22 -190 -35 -49
-12 -91 -21 -93 -20 -7 6 115 72 198 107 112 48 258 90 405 118 147 27 148 27
140 40 -16 26 -277 -3 -462 -51 -259 -66 -472 -177 -635 -331 -32 -29 -58 -50
-58 -45 0 5 18 46 40 90 44 87 113 188 173 254 21 23 36 47 32 53 -9 14 -31 1
-94 -56 -190 -171 -303 -451 -327 -811 l-7 -103 -61 0 c-139 0 -380 -42 -542
-95 -103 -34 -230 -93 -297 -139 l-37 -25 -24 37 c-153 243 -252 796 -259
1454 -1 158 -5 218 -14 218 -6 0 -14 -17 -17 -37z m2154 -502 c-235 -79 -297
-117 -490 -306 -150 -147 -258 -240 -267 -231 -2 2 0 30 6 61 12 66 43 109
134 188 159 139 357 238 602 302 136 36 144 29 15 -14z m271 -167 c-78 -74
-124 -127 -152 -176 -120 -205 -332 -307 -640 -308 -76 0 -178 -33 -234 -75
-43 -33 -45 -34 -45 -13 0 30 105 129 218 206 116 79 122 82 338 156 268 92
429 170 543 265 39 32 61 46 80 50 2 1 -47 -47 -108 -105z m-31 45 c-82 -69
-264 -153 -505 -234 -94 -31 -195 -70 -225 -86 -53 -28 -160 -105 -250 -178
l-42 -35 7 35 c4 19 10 36 14 40 3 3 33 25 65 50 33 24 119 101 192 170 126
122 135 128 210 153 101 33 193 52 324 66 58 6 132 17 165 25 33 7 62 13 65
14 3 0 -6 -9 -20 -20z m-896 -26 c-70 -107 -95 -179 -129 -371 -15 -81 -35
-184 -45 -229 -11 -44 -21 -87 -22 -93 -7 -29 19 -16 41 20 31 49 94 95 168
121 51 18 85 21 269 22 l210 2 78 39 c89 43 202 144 273 241 67 91 149 170
212 204 67 35 160 62 211 60 26 -1 29 -3 10 -6 -80 -13 -196 -64 -249 -108
-17 -15 -72 -75 -123 -133 -105 -123 -258 -278 -306 -311 -61 -42 -140 -63
-267 -71 -196 -11 -318 -65 -457 -200 l-77 -75 -7 94 c-15 211 40 501 128 674
28 57 86 147 94 147 3 0 -2 -12 -12 -27z m-1469 -993 c14 -206 30 -393 34
-415 l7 -40 18 60 c41 138 132 266 249 349 198 140 524 236 842 248 l80 3 6
-100 c11 -162 10 -529 -1 -685 -5 -80 -15 -248 -20 -373 -10 -204 -9 -239 6
-328 16 -90 16 -113 4 -237 -7 -75 -15 -219 -17 -319 -4 -172 -6 -182 -22
-173 -27 14 -29 5 -14 -52 25 -97 11 -195 -30 -211 -11 -4 -13 4 -9 39 2 24
-1 64 -8 88 -7 24 -13 71 -15 103 -2 32 -3 64 -4 71 -1 6 -12 22 -26 34 -33
28 -33 58 -1 58 29 0 54 26 39 41 -7 7 -14 5 -23 -6 -17 -20 -25 -19 -68 10
-20 14 -42 25 -49 25 -23 0 -14 -19 17 -35 27 -14 30 -21 30 -63 1 -53 20
-114 44 -141 20 -22 21 -42 1 -35 -9 4 -15 0 -15 -10 0 -9 4 -16 9 -16 19 0
51 -86 45 -118 -7 -36 -30 -47 -79 -38 -44 9 -255 225 -255 262 0 32 13 30
102 -10 67 -31 128 -81 128 -107 0 -5 7 -9 15 -9 18 0 18 5 4 33 -23 45 -57
70 -166 123 -103 50 -119 62 -193 142 -44 48 -75 89 -69 91 6 2 48 -15 92 -37
45 -22 83 -39 85 -37 2 1 0 14 -3 27 -12 46 -64 96 -133 128 -131 61 -149 71
-183 103 l-34 32 27 3 c15 2 41 -4 58 -13 18 -9 34 -14 37 -11 3 3 -36 51 -88
107 l-93 101 -9 -32 c-8 -31 -9 -31 -27 -15 -39 35 -90 234 -90 350 0 54 5 77
20 100 18 27 60 143 60 166 0 5 -9 9 -20 9 -36 0 -95 -65 -125 -137 -35 -82
-71 -142 -90 -150 -18 -6 -21 -116 -4 -159 5 -16 17 -79 25 -141 14 -110 14
-113 -7 -155 -12 -24 -35 -60 -51 -80 -49 -63 -71 -124 -66 -187 2 -32 12 -68
23 -85 l19 -29 7 24 c5 23 6 23 13 -8 4 -17 21 -51 38 -74 19 -27 26 -45 20
-51 -17 -17 -51 10 -93 74 l-39 61 0 -40 c0 -92 46 -163 129 -201 68 -30 91
-49 91 -74 0 -26 -12 -23 -64 17 -26 19 -49 35 -52 35 -4 0 -4 -24 -2 -54 3
-38 13 -68 33 -97 18 -28 24 -44 16 -47 -18 -6 -41 -57 -41 -91 0 -25 -5 -31
-35 -41 -39 -13 -54 -45 -36 -78 6 -11 8 -28 5 -37 -4 -9 -1 -27 6 -40 10 -19
10 -37 -1 -92 -15 -76 -15 -262 0 -338 8 -45 8 -48 -6 -30 -32 43 -106 202
-138 299 -62 185 -77 333 -56 556 6 58 11 173 11 255 0 99 7 187 19 258 16 92
18 125 9 215 -22 240 6 850 63 1342 6 53 10 245 10 435 -1 187 2 399 6 470 l7
130 17 -260 c10 -143 29 -429 44 -635z m2215 675 c0 -19 -121 -116 -185 -148
-49 -24 -162 -53 -172 -44 -2 3 11 8 29 12 67 14 197 85 255 140 61 57 73 64
73 40z m277 -116 l48 -21 -77 -24 c-82 -26 -181 -87 -282 -173 -101 -85 -133
-91 -441 -77 -130 7 -160 5 -222 -11 -40 -11 -73 -18 -73 -17 0 10 119 67 182
88 58 20 97 26 160 26 160 0 272 45 389 157 63 60 85 75 120 81 55 10 133 -2
196 -29z m228 -65 c83 -21 133 -53 239 -151 50 -47 136 -122 191 -165 151
-121 143 -124 -15 -5 -119 89 -323 167 -437 167 -109 0 -244 -50 -419 -156
-118 -71 -209 -102 -353 -120 -299 -38 -417 -69 -567 -148 l-81 -43 -7 84 c-5
74 -4 89 13 117 83 134 303 198 552 162 167 -24 255 -5 352 77 210 176 358
227 532 181z m81 -197 c23 -8 71 -57 157 -157 68 -80 141 -160 161 -178 57
-50 132 -83 205 -91 l66 -7 -49 -9 c-130 -21 -289 18 -447 111 -200 117 -347
177 -519 211 l-45 9 63 32 c180 93 303 116 408 79z m-340 -167 c45 -10 106
-30 136 -43 72 -32 180 -135 259 -245 34 -48 73 -102 87 -120 24 -31 19 -29
-52 22 -163 117 -395 233 -613 306 l-114 38 53 30 c66 37 129 40 244 12z
m-225 -96 c229 -74 410 -161 605 -289 145 -97 153 -106 65 -84 -38 10 -126 25
-197 33 -145 18 -287 58 -587 165 -226 80 -270 91 -381 91 -144 0 -292 -51
-413 -141 l-53 -40 0 33 c0 28 7 37 43 59 152 95 312 143 567 169 58 6 128 17
155 24 71 20 74 20 196 -20z m-256 -153 c402 -146 591 -201 764 -221 108 -12
248 -48 316 -81 22 -10 31 -17 21 -14 -80 23 -157 28 -218 15 -98 -21 -253
-24 -331 -6 -81 19 -173 64 -247 121 -76 58 -153 100 -241 131 -96 34 -273 44
-364 21 -83 -21 -297 -113 -356 -153 l-49 -33 0 34 c0 27 9 41 47 75 54 47
182 113 263 135 39 10 92 14 180 12 112 -3 134 -7 215 -36z m7 -66 c86 -22
195 -76 270 -133 148 -112 229 -142 413 -149 l130 -6 45 -39 c25 -22 85 -67
133 -99 49 -32 86 -59 84 -59 -2 0 -89 27 -193 60 -230 73 -458 132 -619 160
-87 15 -129 27 -155 45 -45 31 -121 64 -185 82 -106 28 -312 29 -303 1 3 -7
39 -10 98 -9 357 7 590 -205 617 -559 l5 -75 -76 112 c-123 179 -273 308 -446
383 -44 19 -73 24 -150 24 -110 1 -159 -16 -230 -80 -42 -38 -100 -138 -100
-171 0 -20 -66 -163 -75 -163 -7 0 0 148 14 340 11 139 13 146 39 167 62 52
291 152 407 179 71 16 188 12 277 -11z m1108 -77 c85 -31 83 -34 -11 -14 -94
20 -177 66 -179 98 0 3 26 -8 58 -25 31 -17 91 -44 132 -59z m-1267 -250 c222
-106 346 -242 578 -638 187 -318 322 -457 514 -529 156 -59 257 -131 309 -222
17 -28 8 -23 -52 32 -41 39 -105 84 -150 107 -74 39 -204 82 -247 82 -37 0
-120 47 -179 101 -74 68 -122 132 -191 260 -112 205 -203 326 -346 464 -168
162 -328 245 -468 245 -133 0 -187 -41 -232 -174 -31 -90 -75 -184 -103 -221
-14 -19 -15 -17 -16 33 0 38 6 62 20 82 31 43 77 141 85 180 22 104 106 199
205 231 14 5 64 7 111 6 74 -3 95 -8 162 -39z m468 26 c138 -25 343 -79 525
-138 139 -45 297 -90 489 -140 11 -3 -33 -3 -97 -1 -99 4 -125 8 -165 28 -79
41 -152 58 -268 64 -113 6 -291 -8 -403 -31 -44 -9 -62 -9 -62 -2 0 26 -71
157 -105 195 -44 48 -41 49 86 25z m-551 -183 c30 -12 66 -28 80 -36 23 -13
19 -14 -57 -15 -117 0 -226 -24 -314 -67 l-76 -38 19 57 c13 37 32 68 54 87
29 26 52 34 124 44 31 5 117 -12 170 -32z m1197 -56 c43 -14 103 -39 133 -55
l55 -30 -45 6 c-25 4 -104 17 -177 30 -201 36 -373 29 -512 -20 -48 -18 -55
-15 -65 26 -6 26 -6 26 87 42 50 9 103 17 117 19 14 3 93 5 177 6 138 1 159
-1 230 -24z m-981 -69 c157 -127 319 -335 437 -561 20 -38 62 -103 92 -143 66
-87 73 -127 25 -134 -28 -4 -29 -3 -14 13 17 19 5 33 -19 23 -10 -4 -15 1 -14
13 1 10 -4 17 -11 15 -7 -1 -12 5 -10 15 2 13 -3 17 -19 16 -16 -2 -21 2 -17
12 8 19 -9 19 -47 -1 -17 -8 -32 -14 -34 -12 -2 2 1 23 7 46 6 23 7 49 4 59
-6 14 -10 12 -25 -13 -21 -33 -63 -73 -103 -99 -27 -17 -28 -17 -28 3 0 33
-18 35 -34 5 -7 -16 -23 -36 -34 -46 -19 -17 -19 -17 -14 33 6 61 -10 66 -25
8 -7 -24 -27 -63 -45 -88 l-33 -45 -3 48 c-3 47 -22 58 -22 13 0 -13 -18 -44
-41 -70 -42 -47 -59 -57 -59 -32 0 26 -20 28 -29 4 -11 -30 -35 -50 -91 -78
-25 -12 -86 -63 -135 -114 -53 -54 -111 -101 -140 -116 -47 -24 -50 -28 -49
-62 1 -43 -8 -47 -75 -37 -49 7 -75 32 -67 65 3 11 21 46 40 78 19 31 46 87
61 124 54 133 60 146 86 182 15 21 58 57 94 81 46 29 79 61 105 99 111 163
270 280 440 323 29 8 56 19 58 26 10 29 -110 -4 -219 -60 -108 -56 -195 -132
-278 -243 -48 -64 -86 -103 -110 -116 -58 -29 -143 -127 -165 -191 -24 -68
-88 -211 -93 -206 -2 2 10 33 26 68 16 35 45 111 66 169 48 136 69 168 159
234 77 57 105 91 89 107 -5 5 -18 -3 -31 -21 -12 -16 -49 -48 -82 -70 -75 -51
-112 -101 -141 -188 -28 -89 -101 -264 -106 -258 -2 2 8 32 22 67 17 39 28 86
30 124 3 71 18 104 85 189 80 102 129 196 102 196 -4 0 -24 -29 -45 -65 -20
-35 -57 -89 -81 -118 -63 -78 -78 -112 -87 -198 -4 -42 -16 -94 -27 -114 l-19
-38 -7 90 c-7 93 0 131 31 166 12 12 13 21 6 28 -7 7 -17 2 -33 -18 l-22 -28
6 50 c14 129 16 196 5 265 -6 41 -13 114 -16 163 -5 84 -4 88 20 107 13 11 43
55 66 99 42 81 62 101 139 140 88 45 177 61 318 58 l131 -2 49 -39z m994 -15
c63 -12 167 -26 230 -29 l115 -8 -58 -17 c-32 -10 -94 -23 -137 -29 -83 -13
-79 -13 -320 38 -85 17 -215 18 -273 0 -25 -8 -69 -28 -98 -45 -28 -18 -52
-31 -54 -29 -1 2 -5 22 -9 45 -6 41 -6 41 37 57 134 51 357 58 567 17z m413 2
c-23 -2 -64 -2 -90 0 -26 2 -7 3 42 3 50 0 71 -1 48 -3z m-667 -63 c45 -5 128
-20 185 -34 148 -36 305 -50 422 -37 52 6 103 13 114 16 10 3 -7 -6 -37 -21
-66 -31 -189 -64 -241 -64 -21 0 -68 14 -110 35 -140 65 -282 67 -437 4 -117
-47 -242 -53 -242 -11 0 27 137 102 202 112 29 4 55 8 58 9 3 0 42 -3 86 -9z
m205 -90 c88 -16 224 -91 320 -176 84 -75 218 -154 263 -154 11 0 28 -5 36
-11 11 -7 0 -8 -40 -4 -95 11 -131 24 -295 106 -201 100 -280 122 -440 123
-115 1 -122 0 -174 -29 -29 -16 -65 -44 -80 -62 l-27 -32 -47 78 c-26 44 -47
81 -47 83 0 1 33 3 73 4 54 1 88 8 135 28 122 52 218 65 323 46z m23 -164 c53
-14 138 -45 189 -70 l92 -46 -65 5 c-36 2 -110 18 -165 35 -120 37 -274 62
-329 53 -60 -9 -114 -39 -136 -76 -17 -28 -20 -29 -20 -10 0 42 67 102 140
124 56 17 196 9 294 -15z m-128 -61 c49 -9 134 -30 189 -46 70 -22 125 -32
183 -33 45 -2 85 -6 89 -9 3 -4 -11 -14 -33 -23 -61 -27 -181 -22 -282 11
-211 67 -339 72 -401 14 -29 -27 -37 -19 -17 18 19 37 37 52 83 69 50 17 82
17 189 -1z m595 0 c-18 -8 -38 -15 -45 -15 -15 1 46 28 64 29 8 0 0 -6 -19
-14z m-536 -103 l60 -20 -110 1 c-112 0 -178 -15 -216 -49 -15 -13 -18 -12
-33 11 -22 33 -15 52 26 71 44 20 192 12 273 -14z m134 -52 c124 -1 80 -21
-68 -32 -83 -6 -137 -16 -203 -38 l-90 -30 -18 22 c-21 27 -19 33 23 55 53 27
88 33 181 28 49 -3 128 -5 175 -5z m67 -75 c58 -13 174 -59 174 -68 0 -2 -44
11 -97 29 -80 28 -113 34 -178 34 -97 0 -146 -20 -196 -78 l-35 -41 -38 38
-37 38 58 22 c114 42 241 52 349 26z m-167 -102 c-1 -84 -16 -144 -18 -73 -1
25 -6 63 -11 85 -6 28 -6 42 3 47 24 15 27 7 26 -59z m-84 -12 c-8 -46 9 -63
23 -24 10 27 10 26 11 -14 1 -24 -2 -43 -7 -43 -19 0 -82 52 -76 63 9 16 46
57 52 57 2 0 1 -18 -3 -39z m-180 -120 c-15 -13 -65 -23 -65 -12 0 12 18 19
50 20 14 1 20 -3 15 -8z m-95 -78 c0 -101 -4 -107 -61 -89 l-44 14 43 1 c30 1
42 5 42 16 0 8 -9 15 -20 15 -27 0 -26 18 2 22 12 2 23 9 26 16 3 9 -18 12
-80 13 l-83 0 78 28 c43 16 81 31 84 35 12 12 13 6 13 -71z m90 17 c-66 -35
-70 -35 -63 -10 6 22 43 38 88 39 27 0 25 -2 -25 -29z m202 -35 c-5 -41 -57
-195 -84 -250 l-23 -44 3 87 c3 76 8 93 33 133 32 51 40 91 14 69 -18 -15 -19
-7 -4 21 7 14 19 19 37 17 24 -3 27 -7 24 -33z m-182 12 c0 -2 -20 -18 -45
-36 -33 -24 -45 -28 -45 -17 0 8 19 24 43 35 50 23 47 22 47 18z m-20 -74
c-35 -38 -65 -70 -67 -72 -2 -2 -3 7 -3 20 0 18 16 36 63 71 34 26 64 47 66
48 2 0 -24 -30 -59 -67z m-370 47 c0 -5 -5 -10 -11 -10 -5 0 -7 5 -4 10 3 6 8
10 11 10 2 0 4 -4 4 -10z m-161 -106 c-16 -43 -38 -75 -83 -119 -101 -100
-207 -134 -319 -101 -31 9 -58 20 -61 24 -3 5 23 32 56 60 l62 51 12 -28 c26
-61 95 -78 164 -40 55 31 83 86 78 155 l-3 56 55 22 55 22 3 -21 c2 -12 -7
-48 -19 -81z m187 60 c-7 -56 -53 -154 -101 -216 -39 -53 -41 -58 -20 -58 24
0 113 145 136 222 l21 68 26 -18 c39 -28 89 -42 142 -42 l47 0 6 -147 c4 -82
10 -168 13 -193 l7 -45 -23 23 -22 23 -45 -91 c-50 -104 -128 -190 -206 -228
-50 -25 -54 -31 -35 -50 20 -20 -23 -15 -59 8 -45 27 -51 61 -24 138 12 35 20
66 17 69 -3 3 -26 -15 -51 -41 -58 -60 -133 -96 -202 -96 -29 0 -53 -4 -53 -9
0 -12 56 -82 88 -109 l27 -24 -25 7 c-57 16 -132 59 -179 101 -62 55 -90 49
-35 -7 30 -30 34 -39 20 -39 -10 0 -35 13 -55 29 -49 38 -75 51 -105 51 -39 0
-40 -17 -1 -30 56 -18 85 -62 85 -126 0 -66 -20 -108 -60 -129 -67 -35 -173
-216 -255 -436 -19 -52 -42 -100 -52 -106 -9 -7 -34 -13 -55 -13 l-37 0 4 63
c3 34 7 230 10 436 4 279 8 378 17 389 20 23 89 52 128 52 19 0 48 -7 64 -15
34 -18 40 -15 31 14 -8 25 -54 51 -90 51 -33 0 -32 10 10 50 l35 34 -10 -34
c-6 -22 -6 -38 0 -44 12 -12 12 -13 49 61 42 83 65 89 211 48 77 -21 214 -19
289 4 l61 19 -32 -40 c-68 -82 -98 -132 -87 -143 7 -7 13 -5 19 6 5 9 31 44
56 79 83 109 214 202 328 231 25 6 46 15 46 19 0 38 -155 -19 -254 -95 -26
-19 -51 -33 -57 -30 -5 4 -39 -3 -76 -16 -95 -31 -205 -32 -255 -1 -21 13 -38
25 -38 27 0 2 21 -3 47 -11 62 -19 183 -19 183 0 0 10 -23 15 -92 18 -64 3
-102 10 -123 22 -16 9 -21 14 -10 11 11 -4 64 -9 117 -11 53 -1 106 -8 117
-14 17 -8 22 -7 31 10 6 11 16 20 23 19 23 -2 57 13 57 27 0 8 9 14 20 14 11
0 20 -7 20 -15 0 -30 29 -14 80 43 57 63 115 175 126 240 9 57 18 54 10 -4z
m409 -1 c-10 -16 -28 -39 -41 -53 -13 -14 -37 -50 -53 -80 -30 -54 -31 -55
-31 -22 0 47 22 83 82 136 29 25 54 46 56 46 3 0 -4 -12 -13 -27z m-453 -18
c-5 -26 -10 -29 -37 -19 -13 5 -11 10 12 25 15 9 29 18 29 18 1 1 -1 -10 -4
-24z m-262 -50 c0 -83 -47 -135 -123 -135 -38 0 -65 23 -69 59 -3 20 10 31 82
72 46 27 90 49 97 49 9 0 13 -15 13 -45z m240 -10 c0 -13 -4 -14 -20 -5 -11 6
-20 13 -20 15 0 3 9 5 20 5 11 0 20 -7 20 -15z m448 -20 c-11 -20 -35 -70 -53
-111 -37 -84 -50 -104 -40 -59 11 46 53 135 81 172 33 43 39 42 12 -2z m-478
-15 c8 -5 11 -12 7 -16 -4 -4 -15 0 -24 9 -18 18 -8 23 17 7z m515 -37 c-13
-98 -28 -145 -68 -205 -39 -60 -42 -61 -45 -35 -2 15 4 51 14 80 25 76 85 207
96 207 5 0 7 -21 3 -47z m-1619 -28 c9 -37 -2 -41 -14 -6 -7 18 -7 31 -2 31 5
0 12 -11 16 -25z m1675 -86 c-22 -57 -45 -134 -51 -170 -15 -85 -56 -167 -99
-196 -43 -29 -55 -29 -47 0 3 12 12 56 18 97 11 70 17 81 75 155 35 44 80 112
101 152 20 39 38 71 39 69 2 -1 -15 -49 -36 -107z m-601 81 c0 -5 -4 -10 -9
-10 -6 0 -13 5 -16 10 -3 6 1 10 9 10 9 0 16 -4 16 -10z m-33 -36 c-3 -3 -12
-4 -19 -1 -8 3 -5 6 6 6 11 1 17 -2 13 -5z m-802 -128 c19 -14 20 -15 1 -22
-14 -5 -24 -1 -38 15 -35 44 -17 48 37 7z m-738 -71 c71 -24 183 -82 183 -95
0 -7 -112 4 -155 15 -44 11 -135 60 -170 90 l-30 26 48 -5 c26 -3 82 -17 124
-31z m753 -75 c-17 -22 -29 -44 -26 -49 5 -7 -55 -51 -70 -51 -11 0 -2 79 10
90 12 9 99 47 114 50 2 0 -11 -18 -28 -40z m-893 -101 c41 -11 42 -12 28 -32
-18 -26 -19 -86 -3 -122 12 -28 20 -30 48 -15 40 21 119 30 173 18 28 -6 61
-10 72 -10 42 3 121 12 151 18 40 8 55 -12 25 -32 -28 -20 -15 -45 34 -68 42
-20 79 -12 142 32 22 15 47 32 57 37 23 13 22 29 -1 35 -16 4 -15 8 10 32 l27
27 0 -112 c0 -62 -3 -217 -7 -344 l-6 -233 -36 22 c-130 77 -262 197 -293 266
-10 23 -23 42 -28 42 -6 0 -10 -27 -10 -60 l0 -59 -67 25 c-108 40 -249 110
-323 159 -84 56 -132 108 -155 169 -15 40 -16 53 -6 88 17 55 51 86 102 94
l42 7 -24 20 c-13 11 -17 17 -9 14 8 -3 34 -11 57 -18z m763 -49 c0 -11 -7
-20 -15 -20 -13 0 -14 4 -5 20 6 11 13 20 15 20 3 0 5 -9 5 -20z m-1406 -160
c36 -179 116 -367 222 -524 30 -43 54 -88 54 -100 -1 -17 -14 -7 -66 48 -118
125 -192 283 -219 465 -14 88 -20 210 -11 200 2 -2 11 -42 20 -89z m2227 -52
c22 -6 39 -15 39 -19 0 -4 -37 -22 -82 -39 -116 -45 -158 -72 -237 -151 -73
-73 -142 -112 -218 -123 -54 -8 -54 -1 -3 85 40 67 82 111 136 140 18 10 41
38 59 73 l30 58 119 -6 c65 -3 136 -11 157 -18z m-1730 -115 c89 -52 302 -152
454 -213 100 -40 147 -66 210 -114 44 -35 115 -87 158 -116 42 -30 77 -57 77
-61 0 -3 -3 -20 -6 -36 l-6 -30 -103 -7 c-157 -10 -316 -58 -378 -114 -33 -29
-1 -36 37 -7 68 52 243 95 387 95 l59 0 -6 -57 c-4 -32 -7 -59 -8 -59 -1 -1
-30 2 -65 7 -35 5 -66 7 -68 5 -2 -2 19 -26 47 -52 88 -83 90 -89 90 -347 l0
-225 -183 -7 c-212 -8 -245 -2 -313 58 -63 56 -91 117 -136 297 -19 79 -17
313 4 365 l16 40 -1 -110 c-1 -182 29 -268 105 -310 33 -18 41 -18 90 -6 29 8
81 14 116 15 39 1 62 5 62 12 0 27 -75 32 -140 9 -95 -34 -154 -6 -187 88 -19
57 -25 246 -10 347 8 54 8 54 -12 36 -11 -10 -32 -41 -46 -69 -14 -29 -26 -44
-29 -36 -3 8 -10 77 -17 154 l-12 140 -78 81 c-42 44 -94 106 -114 138 -36 57
-70 126 -61 126 3 0 33 -16 67 -37z m1967 -42 c-18 -33 -34 -58 -36 -57 -5 5
30 81 46 99 26 30 24 19 -10 -42z m-324 -33 c-11 -55 -60 -166 -120 -267 -76
-126 -177 -229 -270 -273 -66 -31 -76 -33 -204 -36 l-136 -4 4 41 c4 39 6 41
39 41 66 0 88 21 128 124 l37 95 56 6 c100 12 97 13 100 -20 6 -58 13 -62 34
-15 25 58 77 140 90 140 13 0 38 -64 38 -100 0 -16 5 -30 10 -30 6 0 10 15 10
33 0 48 34 180 56 217 40 69 58 38 30 -53 -13 -44 -12 -57 5 -57 4 0 17 30 30
68 26 81 46 122 59 122 5 0 7 -14 4 -32z m172 -42 c-3 -29 -15 -84 -27 -122
-24 -76 -80 -207 -86 -200 -9 8 64 266 102 359 13 32 18 17 11 -37z m-1811
-76 c21 -22 30 -67 83 -415 34 -214 59 -391 57 -393 -1 -2 -53 75 -114 170
-101 156 -111 177 -111 219 0 32 7 57 23 81 21 29 25 51 30 156 3 67 4 122 1
122 -17 0 -48 -26 -64 -53 l-20 -32 0 45 c0 42 13 145 26 199 5 22 7 20 35
-25 17 -27 41 -60 54 -74z m1725 53 c-43 -139 -65 -313 -39 -313 5 0 2 -13 -7
-30 -23 -38 -9 -53 18 -20 25 31 103 185 134 265 28 72 32 60 5 -16 -23 -67
-81 -184 -132 -265 -43 -67 -45 -74 -26 -74 14 0 124 177 152 243 10 24 20 35
29 31 9 -3 18 5 25 23 9 22 10 4 6 -87 -8 -194 -23 -234 -155 -405 -158 -205
-297 -479 -365 -720 -44 -154 -71 -219 -130 -301 -78 -109 -190 -173 -311
-177 l-59 -2 4 149 c2 83 11 245 20 360 l16 211 110 0 c102 0 113 -2 158 -28
43 -25 47 -26 47 -9 0 26 -25 47 -90 75 l-54 24 60 7 c64 7 150 42 175 72 19
23 253 421 263 448 3 11 15 80 26 155 11 75 29 170 41 211 20 73 88 244 95
237 2 -1 -5 -30 -16 -64z m324 -96 c33 -35 71 -114 333 -702 232 -521 351
-748 549 -1052 l73 -113 -227 -158 c-381 -266 -816 -568 -843 -585 l-25 -17
28 183 c15 100 33 241 39 312 16 177 16 612 0 765 -12 114 -11 139 8 285 67
528 68 777 1 970 -18 52 -19 66 -9 103 14 51 31 53 73 9z m-2487 -166 c-6
-148 -29 -297 -54 -345 -8 -17 -59 -74 -113 -127 -86 -85 -211 -184 -496 -391
-102 -74 -299 -257 -340 -314 -98 -137 -45 -304 95 -304 66 0 120 37 190 129
71 92 163 179 269 252 85 59 84 55 -36 -87 -86 -102 -209 -274 -196 -274 4 0
-4 -12 -18 -27 -76 -83 -79 -153 -9 -183 53 -21 86 0 232 144 146 145 312 281
532 437 178 125 177 125 177 149 0 26 -173 357 -178 341 -2 -6 1 -26 7 -43 17
-47 13 -132 -8 -188 -53 -138 -247 -326 -456 -441 l-60 -32 30 32 c17 18 84
74 150 124 151 116 168 134 215 227 90 180 115 292 115 523 0 92 3 157 7 145
3 -13 25 -88 48 -168 120 -411 205 -597 418 -918 113 -170 158 -214 217 -210
36 3 40 6 43 33 1 18 -7 45 -20 67 -48 77 -276 434 -347 541 -135 206 -218
411 -311 771 l-49 189 64 -69 c92 -99 155 -226 310 -629 55 -143 386 -814 461
-935 29 -47 78 -119 108 -160 l56 -75 -29 -3 c-16 -2 -183 13 -372 33 -458 48
-629 58 -899 54 l-227 -4 86 31 c199 71 395 174 545 286 40 30 71 47 73 41 12
-34 110 -146 162 -186 67 -50 153 -94 203 -104 l33 -6 -46 49 c-25 27 -65 83
-89 124 -43 74 -149 294 -182 378 l-17 43 -48 -24 c-81 -42 -223 -151 -344
-267 -26 -25 -79 -65 -118 -90 -39 -25 -115 -74 -168 -109 -111 -71 -149 -88
-287 -126 l-98 -27 -101 17 c-56 9 -131 21 -166 26 -169 25 -450 -60 -536
-163 -32 -38 -32 -61 1 -87 38 -30 84 -26 175 14 125 55 237 72 514 79 132 4
276 11 320 17 252 32 599 28 983 -11 267 -27 291 -33 177 -41 -158 -12 -298
-9 -446 7 -247 28 -537 4 -689 -56 -268 -106 -536 -328 -813 -673 -48 -59 -99
-125 -113 -147 l-27 -40 -68 0 -69 0 0 839 0 840 48 44 c249 233 593 488 963
716 249 152 491 361 564 485 l28 48 15 -28 c12 -22 14 -55 9 -163z m571 -41
c7 -63 17 -176 23 -250 11 -159 34 -320 54 -387 20 -65 11 -66 -13 0 -12 30
-45 210 -77 418 -31 200 -58 373 -61 384 -4 15 3 11 29 -15 32 -34 34 -41 45
-150z m1846 18 c40 -167 39 -370 -5 -748 -61 -528 -137 -915 -239 -1215 -66
-195 -80 -284 -87 -546 l-6 -216 -159 186 c-88 102 -171 194 -186 203 -30 20
-67 23 -77 8 -13 -21 -25 -9 -25 24 0 56 -38 160 -76 210 -43 57 -134 118
-201 136 l-48 13 60 8 c120 15 229 76 362 202 139 133 221 253 361 537 45 91
102 197 127 235 75 116 82 149 90 470 4 192 11 294 20 325 8 25 19 83 25 130
12 87 26 128 40 114 4 -5 15 -39 24 -76z m-460 -88 c-6 -32 -7 -33 -15 -12
-18 46 -29 21 -29 -65 0 -76 -3 -92 -27 -132 l-28 -46 -5 52 c-11 105 -35 80
-43 -44 -3 -47 -10 -90 -16 -96 -8 -8 -11 -2 -11 21 0 51 -26 40 -35 -15 -9
-58 -49 -103 -94 -103 -29 0 -31 2 -31 40 0 29 -4 40 -15 40 -8 0 -15 -8 -15
-18 0 -36 -29 -62 -71 -62 -27 0 -39 4 -39 14 0 26 -18 27 -44 1 -17 -17 -36
-25 -61 -25 l-35 0 0 140 0 140 98 0 c126 0 200 13 264 45 68 34 149 104 201
173 l42 55 7 -34 c4 -19 5 -50 2 -69z m714 68 c26 -18 101 -73 168 -124 234
-177 450 -312 712 -443 246 -123 549 -236 731 -272 l61 -12 0 -943 0 -944
-426 0 -425 0 19 27 c11 16 43 57 71 93 l50 64 -37 21 c-20 12 -202 106 -404
210 -202 105 -368 193 -368 196 0 3 146 106 325 230 178 123 324 228 325 233
0 5 -35 64 -79 130 -201 309 -313 523 -544 1041 -91 204 -181 405 -201 448
-19 42 -33 77 -30 77 3 0 26 -14 52 -32z m-390 -504 c-12 -289 -20 -325 -92
-434 -20 -30 -72 -125 -114 -210 -91 -184 -162 -311 -162 -290 0 22 47 200 82
315 17 55 60 167 95 248 35 82 75 188 89 235 25 86 54 250 54 305 0 25 47 103
56 94 2 -2 -1 -120 -8 -263z m-662 -132 c15 -9 4 -11 -52 -12 -39 0 -93 -2
-120 -5 l-49 -5 40 20 c31 16 53 20 101 17 34 -3 70 -9 80 -15z m319 -316 c-8
-55 -29 -139 -46 -186 -66 -181 -79 -224 -94 -308 -8 -48 -15 -105 -15 -126 0
-30 -8 -49 -36 -83 -39 -47 -153 -147 -161 -140 -2 3 3 22 11 43 27 71 45 148
55 236 9 77 14 92 47 135 52 67 98 171 133 299 35 127 51 174 88 258 l28 61 3
-44 c2 -24 -4 -89 -13 -145z m-1014 -366 c29 -63 68 -146 87 -185 44 -90 28
-74 -44 45 -45 74 -171 352 -201 440 -13 39 113 -199 158 -300z m224 -586 c19
-9 35 -20 35 -23 0 -4 -28 -9 -62 -10 -306 -10 -712 -103 -1078 -248 -308
-121 -694 -326 -926 -492 l-84 -61 -201 0 -200 0 18 31 c29 51 168 194 242
248 228 169 586 322 1001 426 318 80 504 109 865 135 284 20 337 19 390 -6z
m304 -112 c69 -47 106 -93 131 -165 27 -77 25 -173 -9 -382 -27 -167 -27 -170
-53 -173 -34 -4 -52 22 -83 121 -32 100 -53 230 -60 377 -4 63 -10 142 -16
175 -14 91 -13 97 14 90 12 -4 46 -23 76 -43z m-124 -122 c0 -73 -4 -122 -12
-135 -10 -16 -12 9 -12 135 0 126 2 151 12 135 8 -13 12 -62 12 -135z m-86
104 l31 -6 0 -214 0 -214 -54 0 -53 0 -6 44 c-4 24 -16 70 -29 102 l-22 59 -7
-51 c-3 -28 -10 -135 -14 -237 l-7 -187 -355 0 -354 0 7 23 c30 98 134 177
267 202 41 8 52 35 15 35 -116 -1 -664 -50 -736 -66 -26 -6 -26 -6 -7 9 32 23
280 160 411 225 261 130 517 231 675 266 69 15 187 20 238 10z m1952 -320
l398 -206 -67 -89 -67 -89 -583 0 -583 0 6 33 c3 17 14 80 24 140 10 59 20
109 22 111 19 15 443 306 447 306 3 0 184 -93 403 -206z m-1822 -100 c19 -114
58 -241 82 -271 9 -11 -3 -13 -70 -13 l-81 0 0 176 c0 163 2 178 21 206 12 16
23 28 24 26 2 -2 12 -57 24 -124z m364 104 c14 -13 95 -105 181 -205 l157
-183 -251 0 -250 0 5 23 c2 12 14 85 26 162 25 168 46 225 83 225 14 0 36 -10
49 -22z"/>
<path d="M3857 4755 c-72 -20 -150 -61 -212 -111 -69 -56 -130 -135 -114 -145
7 -4 27 12 51 42 78 99 195 171 315 193 35 6 65 16 66 21 3 15 -52 15 -106 0z"/>
<path d="M3814 4601 c-73 -26 -194 -109 -194 -132 0 -17 22 -9 57 21 42 38
137 86 186 95 22 4 37 13 37 21 0 19 -24 17 -86 -5z"/>
<path d="M3854 4531 c-57 -14 -142 -71 -105 -71 5 0 33 11 63 25 29 14 61 25
71 25 9 0 17 7 17 15 0 16 -1 16 -46 6z"/>
<path d="M3358 3597 c-78 -30 -195 -117 -183 -137 3 -5 29 9 58 32 62 49 141
88 180 88 34 0 63 -14 98 -47 28 -26 52 -15 28 13 -43 52 -119 73 -181 51z"/>
<path d="M3208 3438 c-40 -52 -77 -132 -93 -200 -16 -68 -20 -138 -7 -138 4 0
18 30 31 66 28 79 108 202 157 243 22 17 32 31 25 35 -18 11 -63 -27 -111 -93
-24 -33 -46 -59 -48 -57 -6 7 45 101 72 133 23 27 25 43 6 43 -4 0 -19 -15
-32 -32z"/>
<path d="M3667 2413 c-2 -5 -8 -26 -12 -48 -13 -74 -65 -191 -126 -286 -94
-146 -149 -266 -149 -326 0 -42 23 -20 35 33 16 69 54 149 124 257 33 51 74
122 90 158 29 64 61 171 61 203 0 16 -15 22 -23 9z"/>
</g>
</svg>
