<?xml version="1.0" standalone="no"?>
<!DOCTYPE svg PUBLIC "-//W3C//DTD SVG 20010904//EN"
 "http://www.w3.org/TR/2001/REC-SVG-20010904/DTD/svg10.dtd">
<svg version="1.0" xmlns="http://www.w3.org/2000/svg"
 width="736.000000pt" height="998.000000pt" viewBox="1 1 736.000000 999.000000"
 preserveAspectRatio="xMidYMid meet">
<metadata>
Created by potrace 1.16, written by Peter Selinger 2001-2019
</metadata>
<g transform="translate(0.000000,998.000000) scale(0.100000,-0.100000)"
fill="#000000" stroke="none">
<path d="M637 9973 c354 -2 932 -2 1285 0 354 1 65 2 -642 2 -707 0 -996 -1
-643 -2z"/>
<path d="M2623 9973 c9 -2 25 -2 35 0 9 3 1 5 -18 5 -19 0 -27 -2 -17 -5z"/>
<path d="M3523 9973 c37 -2 96 -2 130 0 34 2 4 3 -68 3 -71 0 -99 -1 -62 -3z"/>
<path d="M4398 9973 c46 -2 118 -2 160 0 42 1 5 3 -83 3 -88 0 -123 -2 -77 -3z"/>
<path d="M4748 9973 c7 -3 16 -2 19 1 4 3 -2 6 -13 5 -11 0 -14 -3 -6 -6z"/>
<path d="M4813 9973 c9 -2 25 -2 35 0 9 3 1 5 -18 5 -19 0 -27 -2 -17 -5z"/>
<path d="M5178 9973 c127 -2 337 -2 465 0 127 1 23 2 -233 2 -256 0 -360 -1
-232 -2z"/>
<path d="M6133 9973 c15 -2 39 -2 55 0 15 2 2 4 -28 4 -30 0 -43 -2 -27 -4z"/>
<path d="M6258 9973 c7 -3 16 -2 19 1 4 3 -2 6 -13 5 -11 0 -14 -3 -6 -6z"/>
<path d="M6343 9973 c31 -2 83 -2 115 0 31 2 5 3 -58 3 -63 0 -89 -1 -57 -3z"/>
<path d="M6663 9973 c43 -2 110 -2 150 0 40 1 5 3 -78 3 -82 0 -115 -2 -72 -3z"/>
<path d="M6908 9973 c7 -3 16 -2 19 1 4 3 -2 6 -13 5 -11 0 -14 -3 -6 -6z"/>
<path d="M7103 9973 c48 -2 126 -2 175 0 48 1 8 3 -88 3 -96 0 -136 -2 -87 -3z"/>
<path d="M3917 8503 c-3 -5 -8 -98 -11 -208 -4 -110 -9 -216 -12 -235 -2 -19
-8 -93 -14 -164 -5 -70 -11 -131 -14 -133 -3 -3 -21 8 -41 25 -32 29 -78 53
-195 104 -118 51 -360 64 -497 27 -94 -26 -219 -89 -290 -146 l-52 -43 -6 38
c-19 118 -25 169 -35 277 -6 66 -14 185 -17 265 -3 80 -10 151 -16 158 -38 48
-145 -322 -181 -623 -16 -140 -31 -562 -31 -870 0 -181 2 -194 28 -270 39
-116 53 -257 38 -414 -6 -69 -11 -169 -11 -221 l0 -94 -67 -66 c-75 -72 -216
-150 -348 -191 -248 -77 -356 -133 -515 -270 -171 -146 -201 -162 -405 -215
-99 -25 -202 -55 -230 -67 -118 -47 -262 -185 -387 -370 -33 -49 -82 -113
-109 -143 -53 -59 -60 -87 -34 -138 22 -42 18 -69 -15 -104 -25 -27 -30 -40
-30 -83 0 -40 -5 -58 -25 -81 -36 -43 -40 -69 -16 -138 27 -76 26 -80 -5 -141
-29 -55 -30 -41 11 -219 18 -80 18 -124 3 -207 -11 -61 -10 -68 11 -109 14
-26 21 -52 18 -66 -29 -117 -39 -144 -61 -167 -48 -50 -69 -116 -74 -236 l-5
-110 -39 -46 c-50 -59 -141 -229 -122 -229 7 0 19 8 26 19 37 52 157 121 213
121 34 0 56 -31 49 -68 l-6 -32 64 0 c69 0 88 -10 88 -47 0 -34 23 -113 32
-113 5 0 22 28 37 63 19 40 42 72 67 91 l37 29 24 -29 c13 -16 53 -89 90 -162
70 -138 107 -185 179 -227 55 -33 64 -32 64 8 l0 32 41 -44 c27 -29 46 -42 59
-38 12 3 28 -6 47 -25 32 -35 141 -118 154 -118 14 0 11 17 -10 63 -20 43 -25
72 -23 117 2 19 5 21 14 12 28 -28 38 -14 32 46 l-6 57 20 -20 c12 -11 37 -47
57 -80 35 -58 36 -62 30 -132 -7 -80 1 -136 18 -130 7 2 15 21 19 43 9 56 22
86 53 122 23 27 34 32 71 32 24 0 44 3 44 8 8 166 23 216 74 240 33 17 97 8
128 -18 20 -16 21 -22 12 -66 l-9 -49 53 -52 c30 -30 63 -76 78 -107 14 -31
30 -56 35 -56 5 0 9 21 9 48 1 115 29 157 150 221 71 38 129 56 228 71 l74 12
61 -43 c34 -23 75 -54 91 -68 76 -69 103 -166 72 -260 -16 -49 -16 -51 3 -70
40 -40 55 -83 55 -163 1 -48 5 -78 12 -78 15 0 46 46 82 123 17 37 37 67 44
67 8 0 40 13 73 30 69 34 83 35 130 16 21 -9 37 -11 40 -5 11 16 35 10 57 -16
12 -14 25 -25 29 -25 4 0 7 23 7 50 -1 46 2 54 36 89 90 93 235 130 369 96 64
-16 73 -22 152 -101 110 -111 127 -113 75 -10 -17 32 -30 72 -30 87 0 29 24
50 48 42 18 -7 15 12 -8 49 -25 41 -25 47 0 41 16 -4 20 0 20 19 0 24 4 26 65
32 79 8 190 -2 226 -20 34 -17 189 -169 189 -185 0 -7 -20 -32 -45 -55 -46
-45 -46 -62 0 -44 58 22 84 13 141 -46 38 -39 54 -64 54 -83 0 -14 11 -43 25
-63 43 -64 86 -140 81 -145 -14 -14 -193 63 -233 99 -23 22 -59 18 -50 -5 4
-10 -18 -13 -97 -12 l-101 0 -172 -69 c-95 -38 -173 -73 -173 -78 0 -11 18
-10 60 2 57 17 209 28 253 19 103 -22 160 -43 179 -69 18 -25 22 -26 71 -18
49 8 201 4 275 -8 20 -3 57 -26 97 -59 35 -30 67 -50 70 -45 6 10 -10 114 -20
130 -3 4 9 41 26 82 46 110 46 109 0 153 -22 21 -50 59 -62 84 -24 50 -41 189
-32 248 l6 36 84 -7 c100 -8 233 -53 274 -92 45 -43 69 -99 58 -137 -13 -45
-11 -57 6 -51 8 3 19 23 25 44 6 21 17 41 26 44 57 22 181 -18 244 -79 31 -30
57 -46 84 -51 21 -3 53 -20 71 -36 19 -16 35 -25 38 -21 2 4 -1 28 -7 53 -18
75 -2 213 33 283 l30 58 -15 75 c-7 42 -14 108 -13 147 l1 72 17 -90 c20 -102
36 -145 82 -212 64 -93 136 -153 206 -172 49 -14 53 -14 53 4 0 8 -4 15 -9 15
-9 0 -81 206 -81 231 0 6 -11 34 -25 62 l-26 50 31 38 31 39 -20 38 c-11 21
-27 44 -35 51 -19 16 -21 33 -3 29 7 -2 37 8 66 21 50 24 55 25 144 13 101
-13 186 -44 352 -130 122 -63 184 -99 208 -120 34 -30 19 18 -22 73 -37 49
-89 143 -125 227 -11 28 -22 38 -38 38 -13 0 -72 14 -133 31 -60 17 -119 33
-131 36 -11 2 -34 15 -50 28 -32 26 -35 49 -19 210 10 109 -10 185 -85 332
-83 163 -83 166 -19 228 29 28 63 74 77 104 22 49 24 62 19 140 -8 104 -20
147 -48 177 -19 21 -20 28 -11 64 10 41 3 90 -17 114 -6 8 -6 27 0 56 17 71 7
139 -28 190 -25 38 -29 53 -25 91 3 41 0 51 -29 83 -17 20 -44 43 -58 51 -16
8 -32 29 -40 52 -31 91 -145 223 -251 291 -81 53 -221 117 -525 241 -170 70
-183 77 -232 121 -88 81 -330 233 -458 288 -44 19 -109 47 -145 62 -176 74
-278 146 -305 215 -23 61 -17 173 23 425 17 108 40 306 52 440 18 211 20 292
16 590 -8 549 -31 757 -105 974 -70 202 -73 209 -84 189z m-1250 -330 c-2
-149 6 -243 32 -371 32 -154 60 -236 100 -288 52 -69 64 -68 91 12 38 113 81
176 153 222 111 73 160 85 332 86 210 0 297 -27 388 -121 30 -32 39 -49 44
-90 l6 -51 -61 29 c-73 35 -134 48 -273 56 -181 10 -332 -39 -428 -139 -45
-47 -80 -112 -67 -126 4 -3 31 19 61 48 30 30 55 48 55 41 0 -9 8 -11 27 -6
23 5 25 4 13 -10 -21 -25 -6 -27 46 -4 83 35 244 63 244 41 0 -4 -39 -15 -86
-25 -130 -27 -223 -65 -210 -86 5 -8 16 -6 37 5 17 8 33 14 35 12 2 -2 -12
-12 -31 -23 -36 -19 -48 -41 -17 -32 9 3 56 19 103 36 88 31 227 55 242 41 5
-4 -42 -15 -104 -25 -94 -14 -235 -58 -257 -79 -17 -18 16 -16 78 4 39 12 73
20 76 17 3 -3 -12 -11 -35 -17 -23 -6 -41 -16 -41 -22 0 -11 3 -11 137 17 46
9 98 15 115 13 23 -2 5 -8 -55 -17 -81 -13 -107 -24 -94 -38 3 -2 47 2 98 11
51 9 109 15 128 15 23 -1 4 -7 -51 -17 -64 -11 -88 -19 -88 -29 0 -11 7 -13
23 -10 55 14 157 29 169 25 7 -3 -30 -13 -84 -22 -93 -17 -141 -36 -126 -51 4
-4 51 0 105 9 138 24 143 24 143 16 0 -4 -26 -10 -58 -13 -68 -7 -92 -15 -92
-29 0 -6 18 -8 48 -4 34 4 41 3 25 -4 -40 -17 -25 -23 41 -16 l63 6 27 -53
c21 -41 27 -64 24 -102 l-3 -50 -50 -7 c-50 -7 -218 -79 -231 -99 -11 -18 3
-21 33 -6 32 16 141 37 196 37 52 0 55 -17 5 -30 -119 -31 -150 -44 -203 -81
-31 -23 -58 -39 -59 -38 -34 41 -33 133 4 274 15 60 26 113 24 117 -7 11 -63
-25 -70 -44 -3 -10 -11 -15 -20 -11 -9 3 -15 -2 -16 -13 -1 -11 -4 13 -8 51
-6 72 -9 72 -30 -5 l-12 -44 -22 35 c-11 20 -26 34 -33 32 -7 -3 -24 19 -38
47 -39 76 -42 54 -5 -40 17 -45 29 -84 27 -87 -3 -2 -22 17 -43 43 -70 86
-112 129 -120 121 -4 -4 9 -31 28 -59 73 -109 110 -178 144 -268 28 -74 32
-95 22 -107 -15 -18 -28 -16 -184 34 -140 44 -239 98 -272 149 -20 31 -21 39
-11 77 6 23 19 56 30 73 29 47 23 61 -11 28 -64 -61 -150 -199 -150 -239 0 -9
15 -49 34 -88 44 -94 51 -117 34 -118 -20 -2 -21 -2 -45 6 -27 8 -31 -13 -9
-48 8 -12 26 -61 39 -109 14 -47 34 -107 46 -132 11 -26 30 -88 41 -139 12
-51 32 -135 45 -187 l23 -95 -27 34 c-35 46 -120 239 -169 388 -75 223 -80
279 -84 853 -3 547 0 617 38 808 20 106 52 222 60 222 1 0 1 -57 1 -127z m686
-640 c-7 -2 -19 -2 -25 0 -7 3 -2 5 12 5 14 0 19 -2 13 -5z m-183 -13 c-8 -5
-19 -10 -25 -10 -5 0 -3 5 5 10 8 5 20 10 25 10 6 0 3 -5 -5 -10z m275 -60
c-16 -4 -41 -8 -55 -8 -22 0 -22 1 5 8 17 4 41 8 55 8 22 0 22 -1 -5 -8z m-98
-16 c-3 -3 -12 -4 -19 -1 -8 3 -5 6 6 6 11 1 17 -2 13 -5z m290 -250 c-3 -3
-12 -4 -19 -1 -8 3 -5 6 6 6 11 1 17 -2 13 -5z m234 -372 c45 -37 -8 -72 -55
-37 -11 8 -33 15 -49 15 -36 0 -27 17 16 29 48 14 63 13 88 -7z m-521 -12 c0
-11 7 -37 15 -57 17 -39 9 -58 -23 -58 -20 0 -19 10 -5 -240 6 -93 9 -172 7
-174 -6 -7 -56 30 -118 88 -34 31 -78 67 -98 80 -21 12 -38 25 -38 27 0 3 31
4 69 2 39 -1 73 1 76 4 15 15 -48 39 -134 53 -106 18 -128 27 -194 85 -47 42
-108 140 -86 140 6 0 42 -20 80 -45 99 -64 138 -82 194 -90 68 -10 96 -26 130
-74 15 -23 34 -41 41 -41 21 0 17 11 -27 69 -22 29 -39 55 -37 57 2 1 21 -12
41 -31 21 -19 40 -35 43 -35 13 0 0 28 -28 57 l-32 33 37 0 c48 0 47 15 0 31
l-38 12 33 15 c29 14 32 20 33 61 0 39 2 42 10 23 10 -27 33 -19 24 9 -4 13
-2 19 9 19 9 0 16 -9 16 -20z m-310 -59 l75 -18 -32 -17 c-30 -15 -36 -15 -68
-1 -20 8 -48 24 -62 35 -33 26 -17 26 87 1z m644 -12 c-43 -46 -60 -52 -100
-39 -20 7 -33 15 -29 18 4 5 110 40 154 51 3 1 -8 -13 -25 -30z m105 -119
c-32 -39 -43 -45 -84 -40 -46 5 -30 22 51 55 32 14 60 25 62 25 2 0 -12 -18
-29 -40z m-944 -66 c72 -42 141 -84 155 -94 14 -10 49 -30 78 -45 l53 -27 -31
-23 c-56 -42 -134 -137 -128 -156 2 -7 26 14 53 45 45 54 117 106 144 106 6 0
47 -27 91 -60 76 -59 78 -62 73 -95 -7 -46 5 -44 39 5 15 22 32 40 38 40 5 0
13 -15 18 -32 8 -31 11 -33 51 -30 23 1 50 -2 61 -8 15 -8 22 -6 33 11 13 18
18 19 36 7 28 -17 22 -43 -9 -42 -112 7 -428 0 -463 -10 -23 -7 -26 -6 -21 8
11 29 -23 17 -55 -20 -32 -36 -34 -68 -3 -41 28 24 191 49 254 39 31 -5 64 -5
75 -1 12 4 52 4 89 1 l69 -7 -28 -19 c-24 -16 -117 -29 -265 -35 -18 -1 -112
-91 -112 -107 0 -17 75 -20 85 -4 4 6 24 19 45 30 69 35 207 23 230 -20 16
-30 12 -39 -42 -96 -57 -61 -103 -80 -220 -91 -38 -3 -68 -9 -68 -14 0 -17 50
-21 189 -15 80 3 162 2 181 -2 34 -8 35 -8 12 -21 -36 -19 -327 -19 -373 1
-59 26 -238 167 -268 212 -42 63 -61 124 -96 311 -9 50 -30 124 -47 165 -34
84 -70 210 -59 210 4 0 65 -34 136 -76z m1031 -120 c-73 -147 -96 -220 -96
-306 0 -45 -19 -128 -29 -128 -4 0 -8 16 -9 36 -2 19 -25 87 -52 151 -61 141
-63 163 -10 104 43 -47 70 -50 70 -6 0 34 51 134 84 164 30 28 34 56 9 70 -14
8 -7 14 42 38 33 16 61 28 63 27 1 -1 -31 -68 -72 -150z m138 6 c-7 -52 -23
-180 -34 -285 -11 -104 -22 -200 -25 -213 -3 -13 2 -80 11 -150 15 -117 15
-130 -1 -195 l-17 -70 41 -82 c47 -94 95 -147 164 -180 42 -20 46 -24 28 -30
-29 -9 -119 -10 -156 -1 -35 8 -75 68 -75 113 0 15 -11 49 -25 75 -14 26 -37
69 -50 95 -29 54 -28 82 5 213 17 65 20 98 15 140 -4 30 -7 69 -6 85 1 38 34
167 55 217 19 45 20 48 3 48 -7 0 -21 -16 -30 -35 -21 -44 -81 -126 -73 -100
62 209 99 322 117 357 23 46 60 101 64 96 1 -2 -4 -46 -11 -98z m-1303 -265
c56 -135 112 -217 209 -306 49 -45 100 -89 113 -98 97 -66 183 -121 189 -121
4 0 34 -20 67 -45 57 -44 178 -105 207 -105 29 0 13 -20 -35 -44 -32 -17 -51
-33 -55 -49 -5 -20 -10 -23 -38 -19 -26 3 -57 29 -144 116 -160 161 -200 195
-268 226 -34 16 -87 50 -120 77 -80 65 -84 68 -91 61 -4 -4 -4 -17 0 -30 10
-33 425 -441 499 -490 33 -22 82 -61 108 -86 l48 -46 -22 -23 c-29 -31 -86
-45 -150 -37 -183 24 -353 201 -527 551 -87 176 -93 191 -92 248 1 118 24 335
39 359 2 5 10 -7 17 -25 7 -19 28 -70 46 -114z m1119 -728 c47 -55 51 -64 45
-96 -13 -73 -38 -133 -62 -148 -25 -17 -62 -11 -141 23 -18 8 -46 14 -62 14
l-29 0 16 53 c8 28 24 68 34 89 26 51 114 139 132 132 8 -3 38 -33 67 -67z
m-1147 -100 c48 -44 69 -57 97 -57 15 0 49 -16 76 -35 43 -31 46 -35 24 -35
-14 0 -81 -12 -150 -26 -101 -20 -339 -48 -347 -40 -1 1 41 37 93 80 53 43
112 99 132 123 22 26 38 39 41 31 2 -7 18 -26 34 -41z m120 -192 c32 -8 75
-16 95 -16 32 -1 30 -3 -18 -11 -51 -9 -307 -1 -297 8 4 4 127 31 152 33 6 1
37 -6 68 -14z m1018 -11 c24 -9 118 -42 209 -74 153 -53 333 -124 388 -152 37
-19 46 -44 32 -94 -17 -60 -76 -123 -152 -165 l-63 -34 -165 0 c-98 0 -181 5
-205 13 l-40 12 -39 140 c-21 77 -44 140 -50 140 -6 0 -18 -28 -26 -62 l-15
-63 -45 -3 -46 -3 -34 60 c-37 64 -60 78 -60 35 0 -27 -31 -247 -35 -252 -2
-2 -54 -10 -116 -18 -178 -24 -321 -1 -474 77 -99 51 -141 82 -160 118 l-14
29 49 21 c27 12 53 21 59 21 18 0 420 176 496 216 17 9 60 19 97 22 78 5 99
-4 162 -75 21 -23 43 -43 47 -43 5 0 9 18 9 41 0 52 14 77 53 94 43 19 85 18
138 -1z m954 -4 c133 -14 125 -11 292 -85 80 -36 190 -79 246 -96 109 -33 153
-58 235 -127 52 -44 69 -78 35 -68 -10 3 -58 14 -108 26 -49 11 -112 28 -140
37 -94 30 -308 126 -379 169 -109 67 -176 101 -256 128 -79 28 -104 43 -55 33
17 -4 75 -11 130 -17z m-181 -62 c38 -11 95 -31 125 -45 84 -38 263 -161 376
-258 102 -89 184 -149 243 -179 37 -19 288 -113 342 -128 54 -15 268 -141 284
-167 3 -5 -22 1 -56 14 -35 13 -106 35 -158 50 -52 14 -116 35 -142 47 -51 23
-69 19 -47 -9 8 -10 -6 -2 -31 18 -25 19 -67 46 -95 60 -27 13 -86 58 -130
100 -44 42 -118 101 -165 132 -111 72 -300 187 -307 187 -3 0 -31 15 -62 34
-112 68 -174 87 -326 101 -77 7 -156 19 -175 28 l-35 14 35 7 c19 3 58 10 85
15 65 12 152 4 239 -21z m-2609 6 c55 -4 116 -13 134 -21 44 -17 161 -19 324
-4 217 20 414 29 449 21 18 -4 30 -8 26 -9 -4 -1 -47 -13 -95 -27 -97 -28
-180 -40 -383 -54 -217 -15 -381 -30 -440 -41 -30 -5 -128 -14 -217 -19 -89
-5 -194 -15 -233 -21 -40 -6 -74 -9 -76 -6 -8 8 142 67 223 87 73 18 103 33
91 46 -10 9 -206 -24 -275 -47 -33 -11 -110 -44 -170 -73 -157 -77 -243 -105
-360 -119 -107 -11 -131 -7 -95 18 11 9 27 21 34 28 46 47 167 129 216 147 93
36 298 78 432 89 69 6 139 13 155 15 30 4 64 3 260 -10z m1004 -39 c-14 -8
-50 -17 -80 -20 l-54 -6 45 20 c25 11 61 20 80 20 l35 0 -26 -14z m-629 -125
c0 -5 -1 -10 -3 -10 -1 0 -81 -27 -177 -59 -96 -33 -236 -78 -310 -101 -155
-49 -204 -68 -395 -155 -44 -20 -114 -48 -155 -61 -41 -14 -115 -41 -165 -61
-49 -19 -154 -59 -232 -89 -175 -65 -208 -82 -300 -150 -40 -30 -74 -50 -76
-46 -3 4 2 28 9 53 15 51 32 65 109 93 28 10 77 31 110 46 33 16 96 42 140 60
44 17 94 37 110 44 17 8 62 24 100 36 115 36 155 52 155 62 0 15 -36 5 -425
-118 -77 -24 -144 -44 -150 -44 -37 2 171 78 316 115 136 35 330 107 462 170
126 60 232 103 345 140 23 8 124 28 225 44 100 17 193 32 207 34 50 8 100 7
100 -3z m190 -35 c0 -10 -102 -55 -247 -108 -83 -31 -192 -76 -241 -101 -49
-25 -116 -54 -148 -65 -33 -11 -99 -36 -148 -56 -49 -20 -130 -47 -180 -60
-50 -13 -149 -42 -219 -64 -70 -23 -132 -41 -138 -41 -17 0 -352 -171 -425
-217 -23 -15 -52 -44 -63 -64 -11 -20 -44 -65 -73 -101 -29 -36 -79 -100 -111
-143 -33 -42 -61 -74 -63 -72 -7 7 25 137 41 171 8 16 15 35 15 41 0 19 86
111 126 135 19 12 44 30 57 40 112 94 159 127 225 157 115 51 112 50 182 73
36 11 72 24 80 29 8 4 61 22 116 40 56 18 125 48 154 66 75 49 157 79 310 115
159 38 289 78 310 95 21 17 107 54 150 64 19 5 62 16 95 26 145 41 195 51 195
40z m-960 -29 c-47 -18 -129 -59 -210 -107 -101 -58 -373 -174 -495 -209 -116
-34 -205 -51 -205 -40 0 18 62 100 96 127 57 44 93 61 197 88 125 33 141 38
227 75 128 55 143 59 210 61 36 1 79 5 95 9 17 4 50 8 75 8 l45 1 -35 -13z
m3789 -131 c19 -9 93 -39 165 -66 98 -36 138 -56 159 -79 15 -17 25 -36 21
-42 -15 -24 -171 17 -304 81 -36 17 -70 31 -77 31 -13 0 -85 57 -168 134 l-60
56 115 -48 c64 -27 131 -57 149 -67z m-2895 -62 c-77 -164 -101 -336 -69 -486
14 -67 41 -127 58 -127 5 0 23 11 40 24 83 62 174 88 302 87 123 -2 177 -27
239 -111 25 -34 46 -68 46 -75 0 -7 6 -17 13 -23 10 -9 23 -2 53 27 81 78 155
93 252 51 74 -32 199 -165 248 -266 45 -90 54 -146 44 -276 -13 -159 -65 -238
-203 -306 -35 -17 -93 -35 -128 -41 -35 -5 -89 -15 -119 -21 -87 -16 -379 -23
-482 -10 -185 21 -318 56 -493 128 -63 25 -233 133 -276 174 -106 102 -138
289 -79 458 55 155 60 182 67 334 5 123 4 148 -8 144 -7 -2 -15 -22 -16 -44
-6 -67 -43 -236 -65 -294 -35 -91 -148 -310 -202 -390 -27 -41 -72 -99 -100
-128 -37 -39 -47 -55 -38 -64 9 -9 18 -9 37 0 30 14 48 15 41 4 -3 -5 -6 -40
-7 -78 -3 -63 1 -78 35 -149 21 -44 47 -106 57 -138 21 -67 62 -405 54 -440
-5 -19 -19 -26 -73 -40 -127 -32 -155 -33 -216 -3 -36 17 -78 52 -119 97 -36
38 -68 69 -71 69 -15 0 -2 -31 39 -94 25 -38 45 -71 45 -73 0 -2 -15 4 -32 13
-74 37 -130 90 -200 184 -80 109 -111 131 -75 53 12 -27 31 -64 43 -83 44 -73
75 -130 71 -130 -21 0 -149 63 -212 104 -44 29 -93 60 -108 70 -48 30 -176
156 -227 225 -67 89 -110 216 -110 323 0 73 53 158 98 158 18 0 158 -115 208
-170 43 -48 92 -81 157 -106 35 -13 15 16 -72 104 -196 200 -264 305 -265 408
0 53 7 75 46 155 25 52 57 120 72 151 15 32 45 72 66 90 44 38 192 118 218
118 9 0 69 19 132 41 171 60 226 77 325 99 114 26 264 67 290 79 32 16 204 81
213 81 12 0 216 86 251 105 14 8 62 29 105 45 44 17 91 37 105 45 14 8 29 14
33 15 4 0 -13 -44 -38 -97z m2336 67 c75 -48 100 -84 169 -245 80 -183 110
-341 118 -615 11 -364 -21 -525 -121 -625 -28 -28 -72 -61 -97 -73 -124 -60
-451 -89 -660 -58 -140 21 -311 61 -359 86 -97 49 -150 225 -122 403 12 78
108 285 162 350 65 77 161 109 253 84 23 -6 29 -4 36 16 12 30 60 87 74 87 6
0 18 6 26 14 60 51 293 83 376 52 41 -16 97 -67 107 -97 8 -24 27 2 49 68 45
137 24 409 -41 531 -15 28 -26 52 -22 52 3 0 26 -13 52 -30z m-3005 -208 c-36
-22 -96 -44 -103 -37 -3 2 8 9 24 15 16 5 40 16 54 24 37 21 60 19 25 -2z
m3531 -129 c53 -43 119 -97 147 -120 29 -23 63 -55 76 -70 12 -16 115 -122
228 -236 l206 -208 -5 -57 c-3 -31 -20 -93 -38 -137 -18 -44 -37 -93 -43 -110
-25 -64 -79 -147 -152 -231 -102 -120 -100 -129 18 -67 39 21 96 61 128 90
l57 53 56 -53 56 -53 0 -194 c0 -107 1 -203 3 -214 1 -14 -5 -19 -27 -22 -16
-1 -44 -18 -62 -35 -19 -18 -36 -31 -38 -28 -3 2 4 24 15 48 33 73 10 68 -68
-15 -54 -58 -70 -72 -63 -51 13 37 13 37 -9 37 -25 0 -197 -171 -282 -280 -37
-47 -81 -114 -99 -149 -31 -60 -34 -63 -64 -58 -17 3 -56 15 -86 26 -137 51
-215 125 -265 248 -37 93 -40 143 -15 268 11 61 25 160 30 220 11 120 31 211
53 232 11 12 22 6 68 -36 31 -28 75 -75 100 -106 58 -73 77 -72 39 3 -16 31
-43 93 -61 137 -31 78 -31 82 -24 190 3 60 8 146 11 190 2 44 6 114 8 155 17
257 17 289 2 405 -9 65 -16 147 -16 181 0 61 9 124 17 124 2 0 47 -35 99 -77z
m-3956 3 c0 -2 -21 -11 -47 -20 -51 -17 -51 -8 0 11 35 13 47 15 47 9z m4138
-41 c33 -25 72 -62 87 -82 15 -21 84 -93 154 -161 69 -68 115 -118 101 -112
-14 6 -68 55 -120 109 -52 53 -142 140 -200 194 -111 102 -122 127 -22 52z
m279 -95 c134 -67 183 -104 183 -136 0 -8 -10 -14 -24 -14 -51 0 -200 101
-327 221 -59 57 -61 59 -19 32 25 -17 109 -63 187 -103z m-5097 -263 c0 -8
-21 -39 -47 -70 -27 -31 -56 -66 -66 -79 -19 -23 -19 -23 -2 7 17 30 108 154
113 155 1 0 2 -6 2 -13z m5396 -315 c12 -28 12 -36 0 -61 -8 -15 -26 -36 -40
-45 l-26 -16 1 37 c1 21 4 49 9 63 l8 25 12 -33 c8 -23 16 -30 23 -23 13 13
-7 61 -51 120 l-34 46 42 -40 c23 -22 49 -55 56 -73z m-5606 28 c-6 -11 -13
-20 -16 -20 -2 0 0 9 6 20 6 11 13 20 16 20 2 0 0 -9 -6 -20z m-35 -81 c-17
-47 -20 -119 -6 -119 10 0 13 10 26 64 4 21 9 26 15 17 15 -25 -31 -151 -56
-151 -16 0 -28 59 -21 105 6 36 42 125 51 125 3 0 -1 -19 -9 -41z m1640 -454
c45 -20 256 -74 281 -73 11 0 87 -8 169 -18 198 -25 504 -25 700 0 85 11 165
16 204 12 61 -5 151 -39 151 -56 0 -5 12 -22 26 -39 58 -70 68 -202 30 -420
-33 -187 -81 -284 -155 -313 -64 -26 -196 -67 -200 -62 -3 2 5 14 17 27 27 29
29 52 5 42 -72 -29 -133 -45 -170 -45 -25 0 -71 -11 -106 -26 -112 -48 -103
-47 -127 -6 -34 57 -61 177 -62 277 -1 75 3 98 22 139 27 57 158 193 219 227
23 12 41 29 41 36 0 7 -1 13 -3 13 -14 0 -200 -66 -236 -84 -82 -40 -205 -109
-246 -137 -220 -148 -234 -154 -353 -146 -103 8 -182 42 -260 112 -92 83 -182
247 -197 360 l-7 50 50 -75 c54 -81 165 -195 250 -253 100 -70 97 -43 -6 72
-43 47 -90 102 -104 121 -28 38 -128 228 -128 243 0 5 17 -8 38 -28 85 -85
290 -195 364 -195 31 0 20 18 -24 38 -88 40 -288 209 -288 245 0 4 16 0 35 -8
19 -8 51 -22 70 -30z m1650 -5 c18 -20 17 -20 -23 -20 -46 0 -51 6 -24 26 23
18 26 17 47 -6z m753 -91 c178 2 184 1 240 -24 64 -29 96 -56 120 -100 14 -25
17 -59 16 -195 -1 -190 -9 -224 -65 -274 -32 -30 -46 -36 -82 -35 -62 1 -74 8
-113 73 -79 132 -252 326 -290 326 -21 0 -18 -8 32 -82 86 -128 121 -251 126
-436 2 -61 2 -112 0 -112 -1 0 -20 11 -41 24 -113 72 -255 120 -382 130 -171
14 -235 48 -262 138 -40 130 -48 391 -15 453 25 47 75 92 121 109 35 13 72 15
227 9 102 -4 267 -6 368 -4z"/>
<path d="M720 2428 c-33 -69 -55 -107 -105 -183 -58 -88 -57 -84 -35 -190 22
-106 25 -152 10 -175 -8 -12 -11 -12 -28 3 -23 21 -32 22 -32 2 0 -8 -5 -15
-11 -15 -7 0 -9 -11 -6 -30 l6 -30 -37 25 c-22 14 -57 55 -82 96 -25 38 -49
77 -55 84 -6 8 -36 17 -70 20 -33 4 -87 17 -121 31 -73 29 -74 29 -74 4 0 -11
20 -35 47 -57 110 -88 175 -184 206 -306 24 -90 34 -90 52 -2 l10 54 42 -28
c25 -17 73 -35 123 -45 47 -11 84 -24 87 -32 3 -8 12 -14 20 -14 11 0 14 6 9
23 -19 65 -29 125 -23 147 4 14 24 48 46 76 38 50 39 53 24 80 -8 16 -17 49
-20 74 -6 55 19 238 47 335 36 127 21 154 -30 53z"/>
<path d="M6270 2282 c-55 -22 -112 -58 -164 -104 -46 -40 -43 -65 6 -41 51 26
118 27 156 4 37 -24 41 -44 12 -68 -27 -24 -25 -33 8 -33 26 0 69 -22 84 -44
14 -21 8 -63 -17 -111 -13 -27 -22 -51 -20 -53 3 -3 40 12 82 32 78 38 170 60
199 49 10 -4 32 11 63 41 62 61 122 74 250 52 48 -9 95 -18 105 -22 31 -12 17
24 -21 54 -58 45 -331 199 -337 190 -1 -2 -14 -23 -29 -48 -14 -25 -37 -58
-51 -75 -24 -29 -25 -29 -26 -7 0 24 -19 29 -38 10 -9 -9 -12 -7 -12 9 0 27
-18 40 -26 19 -11 -28 -24 -17 -24 18 0 55 -16 83 -62 110 -60 35 -86 38 -138
18z"/>
<path d="M1165 2110 c-3 -5 -1 -18 5 -29 17 -33 12 -36 -53 -39 -103 -4 -237
-52 -281 -101 -28 -30 -13 -37 52 -23 78 16 157 15 216 -3 61 -19 86 -40 86
-74 0 -22 11 -31 66 -60 51 -26 74 -46 95 -80 35 -54 35 -64 8 -135 -26 -70
-30 -141 -9 -141 8 0 17 11 18 25 6 38 20 50 110 92 93 45 142 81 142 108 0
23 15 34 70 54 114 40 182 65 186 69 2 2 6 36 8 76 l5 74 -61 56 c-33 31 -71
73 -84 94 -34 53 -47 48 -39 -17 8 -61 -5 -94 -73 -184 -36 -47 -41 -51 -47
-33 -9 29 -27 26 -48 -7 -9 -15 -33 -49 -51 -76 l-35 -49 -6 39 c-15 83 -34
146 -59 189 -15 25 -31 45 -35 45 -5 0 -45 32 -90 70 -44 39 -83 70 -85 70 -3
0 -8 -4 -11 -10z"/>
<path d="M2235 2000 c6 -28 5 -30 -25 -30 -18 0 -33 6 -36 15 -4 8 -11 15 -16
15 -10 0 -8 -27 7 -105 5 -26 -1 -39 -47 -95 -43 -51 -57 -78 -67 -125 -12
-53 -15 -57 -24 -37 -38 84 -63 -103 -32 -238 26 -110 68 -209 123 -293 24
-36 26 -37 34 -18 4 12 4 31 -1 44 -25 65 -31 272 -11 357 7 30 30 81 51 112
39 58 50 103 36 145 -11 31 21 60 77 68 43 7 51 4 110 -34 35 -23 86 -63 113
-89 27 -26 84 -74 127 -107 43 -33 101 -84 127 -114 55 -62 74 -61 41 2 -21
40 -62 212 -62 261 0 24 -38 64 -82 86 -16 7 -63 42 -106 76 l-79 63 -67 -21
-68 -21 -57 57 c-31 31 -60 56 -65 56 -4 0 -5 -13 -1 -30z"/>
<path d="M3037 1923 c-3 -5 13 -78 34 -163 21 -85 39 -167 39 -182 0 -29 27
-60 74 -85 15 -8 49 -30 75 -48 25 -18 66 -41 91 -51 25 -10 64 -30 86 -45 43
-29 134 -124 134 -140 0 -5 5 -9 11 -9 8 0 10 30 6 101 l-5 102 41 46 c23 25
66 94 95 153 59 118 133 207 193 231 37 15 88 69 70 75 -5 2 -27 -8 -48 -22
-21 -14 -62 -30 -90 -36 -52 -9 -120 -40 -178 -79 -16 -12 -38 -21 -47 -21
-10 0 -29 -17 -42 -39 -14 -21 -37 -48 -53 -60 -19 -16 -28 -32 -28 -54 -1
-18 -2 -70 -3 -116 l-2 -85 -29 28 c-15 15 -45 57 -65 94 -55 100 -116 161
-116 116 0 -14 -2 -14 -22 0 -67 47 -121 114 -164 202 -47 96 -49 100 -57 87z"/>
<path d="M5377 1719 c-29 -30 -43 -38 -60 -34 -45 12 -279 -181 -322 -264 -27
-53 -54 -158 -60 -231 -3 -36 -8 -91 -11 -122 -7 -82 16 -78 49 7 14 35 42 85
63 110 32 40 42 46 70 43 19 -1 39 3 45 9 7 7 15 55 20 107 4 52 15 108 23
124 15 30 98 92 122 92 18 0 94 -90 94 -111 0 -10 -9 -42 -20 -70 l-21 -52 35
-111 c19 -61 38 -126 42 -145 9 -48 27 -23 43 59 15 76 76 229 98 245 13 10
12 18 -5 67 -11 31 -36 81 -56 111 -33 50 -36 59 -36 131 0 83 -11 96 -34 41
-18 -43 -38 -47 -30 -6 9 44 -8 44 -49 0z"/>
<path d="M2485 1630 c-3 -5 -1 -27 4 -47 6 -21 14 -78 17 -128 7 -103 -4 -158
-61 -304 -33 -85 -35 -98 -35 -203 0 -62 -5 -130 -11 -151 -6 -22 -8 -41 -5
-44 3 -3 23 6 43 20 57 39 119 58 208 64 71 4 85 2 127 -19 l46 -24 59 28
c107 52 212 81 295 82 45 1 78 5 78 11 -1 6 -35 32 -78 60 -62 40 -94 53 -162
67 -47 10 -109 18 -137 18 -49 0 -53 -2 -53 -24 0 -13 -6 -28 -12 -33 -19 -15
-174 -25 -159 -10 19 19 13 47 -9 47 -14 0 -20 6 -18 18 2 11 -3 16 -15 15
-15 -1 -17 3 -12 20 17 53 16 76 -4 115 -16 31 -21 60 -21 116 0 80 -10 141
-41 249 -19 64 -30 79 -44 57z"/>
<path d="M3900 1331 c-86 -30 -121 -49 -185 -100 -92 -73 -102 -87 -54 -77 19
4 75 10 124 13 74 4 94 9 113 26 l24 22 29 -33 c37 -41 37 -66 -2 -105 l-31
-31 25 -20 c33 -28 50 -86 45 -152 -6 -65 8 -71 49 -18 44 56 119 80 153 49
15 -14 21 -13 58 3 57 26 105 18 148 -24 18 -19 37 -47 40 -62 14 -59 50 -73
39 -15 -25 134 -97 283 -144 298 -10 3 -30 1 -45 -5 -40 -15 -47 -13 -40 15 7
30 4 31 -38 5 -40 -24 -106 -27 -115 -5 -11 30 26 102 67 129 22 14 40 30 40
35 0 8 -46 23 -108 36 -18 4 -40 17 -48 31 -9 13 -21 24 -28 23 -6 0 -58 -17
-116 -38z"/>
</g>
</svg>
